[Module]
VortexTrackerII=0
Version=3.7
Title=digital espresso 4revision2023.:
Author=pator/Joker^PL.ZXAllStars AY ABC
ShowInfo=0
NoteTable=2
ChipFreq=1773400
IntFreq=50000
Speed=3
Noise=HEX
PlayOrder=0,1,2,3,4,5,6,7,8,9,13,10,11,15,16,15,14,17,12,19,18,20,21,22,23,24,25,26,1,2,3,4,5,27,28,29,30,31,32,33,35,36,35,37,39,19,41,40,34,L38


[Ornament1]
L0,0,3,3,5,5,7,7,5,5,3,3

[Ornament2]
L0,3,5

[Ornament3]
L0,0,4,4,5,5,7,7,5,5,4,4

[Ornament4]
12,L0

[Ornament5]
L5,7,12,7,5,7

[Ornament6]
L0,4,7

[Ornament7]
L0,3,7,12,19,24

[Ornament8]
L0,4,5,12,19,24

[Ornament9]
12,-2,-1,L0

[Ornament10]
24,12,L0

[Ornament11]
1,L0

[Ornament12]
L12,0

[Ornament13]
L0,3,7

[Ornament14]
12,19,L0

[Ornament15]
L0

[Ornament16]
L0

[Ornament17]
L0

[Ornament18]
L0

[Ornament19]
L0

[Ornament20]
L0

[Ornament21]
L0

[Ornament22]
L0

[Ornament23]
L0

[Ornament24]
L0

[Ornament25]
L0

[Ornament26]
L0

[Ornament27]
L0

[Ornament28]
L0

[Ornament29]
L0

[Ornament30]
L0

[Ornament31]
L0

[Sample1]
T.E -002_ +00_ F_
T.E -001_ +00_ F_
T.E +000_ +00_ F_
T.E +000_ +00_ F_
T.E +000_ +00_ F_
T.E +000_ +00_ F_
T.E +000_ +00_ F_
T.E +000_ +00_ F_
T.E +000_ +00_ F_
T.E -002_ +00_ F_
T.E -004_ +00_ F_
T.E -002_ +00_ F_
T.E +000_ +00_ F_
T.E +004_ +00_ F_
T.E +007_ +00_ F_
T.E +004_ +00_ F_
T.E +000_ +00_ F_
T.E -003_ +00_ F_
T.E -006_ +00_ F_
T.E -003_ +00_ F_
T.E +000_ +00_ F_
T.E +003_ +00_ E_
T.E +006_ +00_ E_
T.E +003_ +00_ E_
T.E +000_ +00_ E_
T.E -003_ +00_ E_ L
T.E -006_ +00_ E_
T.E -003_ +00_ E_
T.E +000_ +00_ E_
T.E +003_ +00_ E_
T.E +006_ +00_ E_
T.E +003_ +00_ E_

[Sample2]
T.E +000_ +00_ F_ L

[Sample3]
T.. -001_ +00_ F_
T.E -003_ +00_ F_
T.E +000_ +00_ F_ L

[Sample4]
TN. +000_ +03_ F_
T.. +000_ +00_ F_ L
T.. +001_ +00_ F_
T.. -001_ +00_ F_
T.. +001_ +00_ F-
T.. +000_ +00_ F_

[Sample5]
TN. +000_ +02_ F_
T.E +000_ +00_ F_ L

[Sample6]
TN. +000_ +00_ F_ L
TN. +000_ +00_ F_
TN. +000_ +00_ F_
TN. +000_ +00_ F_
TN. +000_ +00_ F_
TN. +000_ +00_ F_
TN. +000_ +00_ F_
TN. +000_ +00_ F_
TN. +000_ +00_ F_
TN. +000_ +00_ F-

[Sample7]
TN. -001_ +02_ F_
T.E -001_ +00_ F_ L

[Sample8]
T.. -006_ +00_ F_
T.. -00D_ +00_ F_
T.E +000_ +00_ F_ L

[Sample9]
T.E -023_ +00_ E_ L
T.E -00A_ +00_ E_
T.E -009_ +00_ E_
T.E +003_ +00_ E_
T.E +003_ +00_ E_
T.E +00D_ +00_ E_
T.E +005_ +00_ E_
T.E -003_ +00_ E_

[Sample10]
..E +000_ +00_ F_ L
..E +000_ -04_ F_
..E +000_ +0F_ F_

[Sample11]
T.E +000_ +00_ E_
T.E +000_ +00_ E_
T.E +000_ +00_ D_
T.E +000_ +00_ D_
T.E +000_ +00_ C_
T.E +000_ +00_ C_
T.E +000_ +00_ C_
T.E +000_ +00_ C_
T.E +000_ +00_ C_
T.E +000_ +00_ C_
T.E +000_ +00_ C_
T.E +000_ +00_ C_
T.E +000_ +00_ C_
T.E +000_ +00_ C_
T.E +000_ +00_ C_
T.E +000_ +00_ C_
T.E +000_ +00_ C_
T.E -001^ +00_ C_ L
T.E -001^ +00_ C_
T.E +001^ +00_ C_
T.E +001^ +00_ C_
T.E +001^ +00_ C_
T.E +001^ +00_ C_
T.E -001^ +00_ C_
T.. -001^ +00_ C_

[Sample12]
TN. -1E3_ +00_ C_
TN. -1E3_ +00_ B_
TN. -1E3_ +00_ A_
TN. -1E3_ +00_ 7_
TN. -1E3_ +00_ 6_
TN. -1E3_ +00_ 5_
.N. -1DE_ +00_ 5_
.N. -1DE_ +00_ 4_
.N. -1DE_ +00_ 3_
.N. -1DE_ +00_ 3_
.N. -1DE_ +00_ 3_
.N. -1DE_ +00_ 2_
.N. -1DE_ +00_ 2_
.N. -1DE_ +00_ 1_
... +000_ +00_ 0_ L

[Sample13]
TNE +000_ +02_ F-
T.. +000_ +00_ F- L

[Sample14]
TN. +000_ +00_ 6+ L
TN. +000_ +00_ 6_

[Sample15]
..E +000_ +00_ 0_ L

[Sample16]
T.E -00D_ +00_ F_ L

[Sample17]
TN. +000_ +06_ F_ L
TN. +000_ +03_ F_
T.. +000_ +00_ F_
T.. +000_ +00_ F_
T.. +000_ +00_ F_
T.. +000_ +00_ F_
T.. +000_ +00_ F_
T.. +000_ +00_ F_
T.. +000_ +00_ F_
T.. +000_ +00_ F_
T.. +000_ +00_ F_
T.. +000_ +00_ F_
T.. +000_ +00_ F_
T.. +000_ +00_ F_

[Sample18]
T.E +100_ +00_ F_
T.E +200_ +00_ F_
T.E +380_ +00_ E_
T.E +480_ +00_ E_
T.E +580_ +00_ E_
T.E +600_ +00_ A_
T.E +600_ +00_ 8_
T.E +680_ +00_ B_
T.E +700_ +00_ D_
T.E +800_ +00_ D_
T.E +880_ +00_ E_
T.E +000_ +00_ 0_ L

[Sample19]
TN. +000_ +06_ F_ L
TN. +000_ +03_ F_
T.. +000_ +00_ F_
T.. +000_ +00_ F_
T.. +000_ +00_ F_
T.. +000_ +00_ F_
T.. +000_ +00_ F_
T.. +000_ +00_ F_
T.. +000_ +00_ F_
T.. +000_ +00_ F_
T.. +000_ +00_ F_
T.. +000_ +00_ F_
T.. +000_ +00_ F_
T.. +000_ +00_ F_

[Sample20]
TN. +0C8_ +07_ F_
T.. +190_ +00_ F_
T.. +258_ +00_ F_
T.. +320_ +00_ F_
..E +3E8_ +00_ F_ L

[Sample21]
TN. +000_ +03_ F_
T.. +000_ +00_ F_ L
T.. +001_ +00_ F_
T.. -001_ +00_ F_
T.. +001_ +00_ F_
T.. +000_ +00_ F_
T.. +001_ +00_ F_
T.. +000_ +00_ F_
T.. +002_ +00_ F-

[Sample22]
TN. +1AC_ -08_ F_ L
TN. +188_ -07_ F_
TN. +170_ -07_ E_
TN. +146_ -06_ E_
.N. +000_ -06_ D_
.N. +000_ -06_ D_
.N. +000_ -06_ 7_
.N. +000_ -05_ 6_
.N. +000_ -05_ 6_
.N. +000_ -04_ 6_
.N. +000_ -04_ 5_
.N. +000_ -04_ 3_
.N. +000_ -04_ 3_
.N. +000_ -03_ 3_
.N. +000_ -03_ 3_

[Sample23]
TN. +000_ +00_ F_ L

[Sample24]
TN. +032_ +00_ F_
T.. +032_ +00_ F_ L
T.. +064^ +00_ F-

[Sample25]
TNE +001_ -10_ F_ L
TNE -002_ -10_ F_
TNE +001_ +0F_ E_
TNE -002_ -0F_ D_
TNE +001_ -0F_ F_
TNE -002_ +0F_ F_
TNE +001_ -10_ E_
TNE -002_ +0F_ D-

[Sample26]
T.. +000_ +00_ E_ L
T.. -042_ +00_ E_
T.. -08B_ +00_ E_

[Sample27]
TN. -1CF_ +00_ E_
.N. +000_ +00_ C_
.N. +000_ +00_ C- L

[Sample28]
TN. +020^ +08^ F_
T.. +020^ +00_ F_
T.. +0C0^ +00_ F_
TN. +020^ +01_ D- L
TN. +020^ +00_ D_

[Sample29]
..E +000_ +00_ F_ L
..E -042_ -04_ F_
..E -08B_ +08_ F_

[Sample30]
TN. +000_ +00_ F_
T.. +000_ +00_ F_ L
T.. +001_ +00_ F_
T.. -001_ +00_ F_
T.. +001_ +00_ F_
T.. +000_ +00_ F_
T.. -001_ +00_ F-
T.. +001_ +00_ F_

[Sample31]
T.E +000_ +05_ F_ L
T.E +000_ +01_ F_
T.E +000_ +00_ F_
T.E +000_ +00_ F_
T.E +000_ +00_ F_
T.E +000_ +00_ F_
T.E +000_ +07_ F_
T.E +000_ +03_ F_
T.E +000_ +00_ F_
T.E +000_ +00_ F_
T.E +000_ +00_ F_
T.E +000_ +00_ F_

[Pattern0]
E000|..|C-2 7FF7 4..1|C-3 BFFF B..3|C-2 BFFF ....
....|..|--- .... ....|--- .... B..5|--- .... ....
....|..|--- .... ....|--- .... B..3|--- .... ....
....|..|--- .... ....|--- .... ....|--- .... ....
....|..|--- .... ....|--- .... ....|--- .... ....
....|..|R-- .... ....|--- ...3 B..5|--- ...3 ....
....|..|A#1 .... 4..1|A#2 ...F B..3|A#1 ...F ....
....|..|--- ...6 ....|--- .... ....|--- .... ....
....|..|B-8 E..7 B..4|--- .... ....|--- .... ....
....|..|--- ...8 ....|--- .... ....|--- .... ....
....|..|--- ...9 B..3|G-2 .... 6.40|G-1 .... 6.40
....|..|--- ...A ....|--- .... ....|--- .... ....
....|..|--- ...B ....|F#2 .... ....|F#1 .... ....
....|..|--- ...C B..5|--- .... ....|--- .... ....
....|..|--- ...D B..3|F-2 .... ....|F-1 .... ....
....|..|--- ...E ....|--- .... ....|--- .... ....
....|..|C-4 S..F ....|G-2 .... 6.20|C-4 M.7. ....
....|.F|F-5 6..E B..5|--- .... ....|--- .... ....
....|.F|--- .... B..3|F-3 .... ....|F-2 B.F. ....
....|.A|--- .... ....|--- .... ....|--- .... ....
....|.4|--- ...D ....|--- .... ....|--- .... ....
....|.A|--- .... B..5|--- .... ....|--- .... ....
....|.4|--- ...C B..3|F-2 .... ....|F-1 .... ....
....|.A|--- .... ....|--- .... ....|--- .... ....
....|.F|C-4 S..F B..4|G-2 .... 6.20|D-4 M.7. ....
....|.F|F#5 6..E ....|--- .... ....|--- .... ....
....|.A|--- .... B..3|F#3 .... ....|F#2 B.F. ....
....|.6|--- .... ....|--- .... ....|--- .... ....
....|.A|--- ...D ....|--- .... ....|--- .... ....
....|.F|--- .... B..5|--- .... ....|--- .... ....
....|.F|C-4 S..F B..3|F#2 .... ....|G-4 M.7. ....
....|.F|G-5 6..E ....|--- .... ....|--- .... ....
....|.F|--- .... ....|G-2 .... 6.20|G-1 B.F. ....
....|.A|--- .... B..5|--- .... ....|--- .... ....
....|.7|--- ...D B..3|G-3 .... ....|G-2 .... ....
....|.A|--- .... ....|--- .... ....|--- .... ....
....|.8|--- ...C ....|--- ...5 ....|--- ...5 ....
....|.8|--- .... B..5|--- .... ....|--- .... ....
....|.9|--- ...A B..3|--- ...4 ....|--- ...4 ....
....|.A|--- ...9 ....|--- ...3 ....|--- ...3 ....
..23|..|C-1 FCFF B..4|G-3 2..F ....|C-4 E.1. ....
....|..|--- .... ....|--- ...A ....|--- ...4 ....
..25|..|C-1 .C.. B..3|F#3 .F.F ....|--- ...5 ....
..23|..|B-8 GCF. ....|G-3 ..FA ....|--- ...6 ....
..27|..|C-1 FC.. ....|F-3 .F.F ....|--- ...7 ....
..25|..|B-8 GCF. B..5|F#3 ..FA ....|--- ...8 ....
..2C|..|C-1 FC.. B..3|D#3 .F.F ....|--- ...9 ....
..27|..|B-8 GCF. ....|F-3 ..FA ....|--- ...A ....
..27|..|C-1 FC.. ....|F-3 .F.F ....|--- ...B ....
..2C|..|B-8 GCF. B..5|D#3 ..FA ....|--- ...C ....
..2C|..|C-1 FC.. B..3|D#3 .F.F ....|--- ...D ....
..27|..|B-8 GCF. ....|F-3 ..FA ....|--- ...E ....
..34|..|C-1 FC.. ....|C-3 .F.F ....|--- ...F ....
..2C|..|B-8 GCF. B..5|D#3 ..FA ....|--- .... ....
..3B|..|C-1 FC.. B..3|A#2 .F.F ....|A#3 O.F. ....
..34|..|B-8 GCF. ....|C-3 ..FA ....|G-3 .... ....
..34|..|C-1 FC.. B..4|C-3 .F.F ....|D#4 .... ....
..3B|..|B-8 GCF. ....|A#2 ..FA ....|--- .... ....
..3B|..|C-1 FC.. B..3|A#2 .F.F ....|F-3 .... ....
..34|..|B-8 GCF. ....|C-3 ..FA ....|--- .... ....
..46|..|C-1 FC.. ....|G-2 .F.F ....|C-4 .... ....
..3B|..|B-8 GCF. B..5|A#2 ..FA ....|--- .... ....
..4A|..|C-1 FC.. B..3|F#2 .F.F ....|G-3 .... ....
..46|..|B-8 GCF. ....|G-2 ..FA ....|--- .... ....

[Pattern1]
..1A|.6|A#3 KFFF ....|C-4 FE.F B..3|C-4 KFFF ....
....|.4|C-2 2... B..5|--- .... 91.5|C-4 6.7. 5..2
....|.3|--- .... B..3|--- .... ....|--- .... ....
....|..|--- .... ....|R-- .... ....|--- ...E ....
..27|..|A#2 88.. ....|C-4 H.1E ....|A#1 3.FF ....
....|..|--- .... ....|--- .... ....|--- .... B..5
....|..|--- .... ....|--- .... ....|--- .... B..3
....|..|R-- .... ....|--- .... ....|R-- .... ....
..34|..|C-4 KCF. ....|--- ...D ....|A#3 K... B..4
..23|..|C-2 9F.. ....|--- .... ....|C-2 8C.. ....
....|..|--- .... ....|--- .... ....|--- .... B..3
....|..|R-- .... ....|--- .... ....|R-- .... ....
..27|..|A#2 88F. ....|--- ...C ....|A#1 2FF. ....
....|..|--- .... ....|--- .... ....|--- .... B..5
..34|..|C-2 .C.. ....|--- .... ....|C-2 .F.. B..3
....|..|--- .... ....|--- .... ....|--- .... ....
..68|..|C-4 KCF. ....|--- ...B ....|A#3 K.F. ....
....|..|R-- .... ....|--- .... B..5|R-- .... ....
..23|..|G-2 2FF. ....|--- .... B..3|G-2 28F. ....
....|..|--- .... ....|--- .... ....|--- .... ....
..1D|..|A#2 .CF. ....|--- ...A ....|A#2 3F.. ....
....|..|R-- .... ....|--- .... B..5|R-- .... ....
..34|..|C-4 .CF. ....|--- .... B..3|C-3 2.F. ....
....|..|--- .... ....|--- .... ....|--- .... ....
..68|..|C-4 KCF. 6.40|--- ...B B..4|A#3 K... ....
....|..|--- .... ....|--- .... ....|--- .... ....
..2C|..|D#2 8FF. ....|--- .... B..3|D#2 38F. ....
....|..|--- .... ....|--- .... ....|--- .... ....
....|..|--- .... ....|--- ...C ....|--- .... ....
....|..|R-- .... ....|--- .... B..5|R-- .... ....
..34|..|F-2 .8F. ....|--- .... B..3|F-2 9... ....
....|..|--- .... ....|--- .... ....|--- .... ....
....|..|A#3 KFF. ....|--- ...D ....|C-4 KFF. ....
..1D|..|D#2 8C.. ....|--- .... B..5|D#2 2F.. ....
....|..|--- .... ....|--- .... B..3|--- .... ....
....|..|--- .... ....|--- .... ....|--- .... ....
..23|..|C-2 .8.. ....|--- ...E ....|C-2 3... ....
....|..|--- .... ....|--- .... B..5|--- .... ....
....|..|R-- .... ....|--- .... B..3|R-- .... ....
....|..|--- .... ....|--- .... ....|--- .... ....
..68|..|C-4 KCF. ....|--- ...F B..4|A#3 K.F. ....
..23|..|C-2 8CF. ....|--- .... ....|C-2 2... ....
....|..|--- .... ....|--- .... B..3|--- .... ....
....|..|R-- .... ....|--- .... ....|R-- .... ....
..27|..|A#2 .C.. ....|--- ...E ....|A#1 3F.. ....
....|..|--- .... ....|--- .... B..5|--- .... ....
..34|..|C-2 .C.. ....|--- .... B..3|C-2 .... ....
....|..|--- .... ....|--- .... ....|--- .... ....
....|..|A#3 KFF. ....|--- ...D ....|C-4 K.F. ....
....|..|--- .... ....|--- .... B..5|--- .... ....
..1A|..|F-2 88F. ....|--- .... B..3|F-2 3... ....
....|..|--- .... ....|--- .... ....|--- .... ....
..23|..|C-2 .FF. ....|--- ...C ....|C-2 .8F. ....
....|..|--- .... ....|--- .... B..5|--- .... ....
..1D|..|A#1 .CF. ....|--- .... B..3|A#1 .FF. ....
....|..|--- .... ....|--- .... ....|--- .... ....
..46|..|C-4 KCF. ....|--- ...B B..4|A#3 K... ....
....|..|G-1 9F.. ....|--- .... ....|G-1 9F.. 1.10
..1C|..|G-2 8C.. 6.60|--- .... B..3|G-2 3... 6.60
....|..|--- .... ....|--- .... ....|--- .... ....
..1A|..|F-2 .CF. 6.60|--- ...A ....|F-2 9... 6.60
....|..|--- .... ....|--- .... B..5|--- .... ....
..1A|..|F-2 .8.. 6.60|--- .... B..3|F-2 .... 6.60
....|..|--- .... ....|--- .... ....|--- .... ....

[Pattern2]
..5D|.7|C-4 KCFF ....|C-4 KFFF B..3|A#3 KCFF ....
..23|.7|C-2 88.. ....|A#3 N.3. B..5|C-2 2F.. ....
....|.6|--- .... ....|--- .... B..3|--- .... ....
....|.3|--- .... ....|--- .... ....|--- .... ....
..27|.2|A#1 .8.. ....|A#3 H..E ....|A#1 3... ....
....|..|--- .... ....|--- .... B..5|--- .... ....
....|..|R-- .... ....|--- .... B..3|R-- .... ....
....|..|--- .... ....|--- .... ....|--- .... ....
..34|..|C-4 KCF. ....|--- ...D B..4|A#3 K.F. ....
..23|..|C-2 88.. ....|--- .... ....|C-2 2F.. ....
....|..|--- .... ....|--- .... B..3|--- .... ....
....|..|R-- .... ....|--- .... ....|R-- .... ....
..27|..|A#1 .8F. ....|--- ...C ....|A#1 ..F. ....
....|..|--- .... ....|--- .... B..5|--- .... ....
..1C|..|G-1 .8.. ....|--- .... B..3|G-1 .F.. ....
....|..|--- .... ....|--- .... ....|--- .... ....
..4E|..|C-4 KCF. ....|--- ...B ....|A#3 K.F. ....
....|..|R-- .... ....|--- .... B..5|R-- .... ....
..4E|..|F-1 8F.. ....|--- .... B..3|F-1 2C.. ....
....|..|--- .... ....|--- .... ....|--- .... ....
..23|..|A#2 .C.. ....|--- ...A ....|A#2 3F.. ....
....|..|R-- .... ....|--- .... B..5|R-- .... ....
..1A|..|C-3 .8.. ....|--- .... B..3|C-3 .... ....
....|..|--- .... ....|--- .... ....|--- .... ....
..2C|..|C-4 KCF. ....|--- ...B B..4|A#3 K.F. ....
....|..|R-- .... ....|--- .... ....|R-- .... ....
..2C|..|D#3 8C.. ....|--- .... B..3|D#2 3F.. ....
....|..|--- .... ....|--- .... ....|--- .... ....
....|..|R-- .... ....|--- ...C ....|R-- .... ....
....|..|--- .... ....|--- .... B..5|--- .... ....
..2C|..|F#3 .CF. ....|--- .... B..3|F#2 ..F. ....
....|..|--- .... ....|--- .... ....|--- .... ....
..4A|..|C-4 KCF. ....|--- ...D ....|A#3 K... ....
..25|..|F#2 8F.. ....|--- .... B..5|F#2 2C.. ....
....|..|--- .... ....|--- .... B..3|--- .... ....
....|..|R-- .... ....|--- .... ....|R-- .... ....
..27|..|F-2 .C.. ....|--- ...E ....|F-2 3F.. ....
....|..|--- .... ....|--- .... B..5|--- .... ....
..2C|..|D#2 .C.. ....|--- .... B..3|D#2 .... ....
....|..|--- .... ....|--- .... ....|--- .... ....
..68|..|C-4 KCF. ....|--- ...F B..4|A#3 K.F. ....
..27|..|F-2 8CF. ....|--- .... ....|F-2 2... ....
....|..|--- .... ....|--- .... B..3|--- .... ....
....|..|R-- .... ....|--- .... ....|R-- .... ....
..23|..|G-2 .C.. ....|--- ...E ....|G-2 3F.. ....
....|..|--- .... ....|--- .... B..5|--- .... ....
..27|..|F-2 .C.. ....|--- .... B..3|F-2 .... ....
....|..|--- .... ....|--- .... ....|--- .... ....
..3B|..|C-4 KCF. ....|--- ...D ....|A#3 K.F. ....
..23|..|G-2 8C.. ....|--- .... B..5|G-2 9F.. ....
....|..|--- .... ....|--- .... B..3|--- .... ....
....|..|--- .... ....|--- .... ....|--- .... ....
..34|..|C-2 .F.. ....|--- ...C ....|C-2 2C.. ....
....|..|--- .... ....|--- .... B..5|--- .... ....
..25|..|F#2 .C.. ....|--- .... B..3|F#2 .F.. ....
....|..|--- .... ....|--- .... ....|--- .... ....
..46|..|C-4 KCF. ....|--- ...B B..4|A#3 K.F. ....
....|..|--- .... ....|--- .... ....|G-2 2... ....
..27|..|F-2 8F.. ....|--- .... B..3|F-2 3C.. ....
....|..|--- .... ....|--- .... ....|--- .... ....
....|..|R-- .... ....|--- ...A ....|R-- .... ....
....|..|--- .... ....|--- .... B..5|--- .... ....
..3B|..|A#1 .8.. ....|--- .... B..3|A#1 .F.. ....
....|..|--- .... ....|--- .... ....|--- .... ....

[Pattern3]
....|.6|A#3 KFFF ....|C-4 KFFF B..3|C-4 KFFF ....
..23|.4|C-2 8CF. ....|F-4 N.3. B..5|C-2 2F.. ....
....|.3|--- .... ....|--- .... B..3|--- .... ....
....|..|--- .... ....|--- .... ....|--- .... ....
..27|..|A#1 .C.. ....|F-4 J..E ....|A#1 3.F. ....
....|..|--- .... ....|--- .... B..5|--- .... ....
....|..|R-- .... ....|--- .... B..3|R-- .... ....
....|..|--- .... ....|--- .... ....|--- .... ....
..34|..|C-4 KCF. ....|--- ...D B..4|A#3 K... ....
..23|..|C-2 88.. ....|--- .... ....|C-2 9F.. ....
....|..|--- .... ....|--- .... B..3|--- .... ....
....|..|--- .... ....|--- .... ....|--- .... ....
..27|..|A#1 .8F. ....|--- ...C ....|A#1 2.F. ....
....|..|--- .... ....|--- .... B..5|--- .... ....
..23|..|C-2 .F.. ....|--- .... B..3|C-2 .C.. ....
....|..|--- .... ....|--- .... ....|--- .... ....
..68|..|C-4 KCF. ....|--- ...B ....|A#3 KFF. ....
....|..|R-- .... ....|--- .... B..5|R-- .... ....
..1C|..|G-2 8C.. ....|--- .... B..3|C-6 VC.. ....
....|..|--- .... ....|--- .... ....|--- .... ....
..2A|..|F-6 VC.. ....|--- ...A ....|A#2 3F.. ....
....|..|--- .... ....|--- .... B..5|R-- .... ....
..1A|..|C-3 88.. ....|--- .... B..3|C-6 VC.. ....
....|..|--- .... ....|--- .... ....|--- .... ....
..34|..|C-4 KCF. ....|--- ...B B..4|A#3 KFF. ....
....|..|R-- .... ....|--- .... ....|R-- .... ....
..11|..|G-5 VE.. ....|--- .... B..3|D#2 3F.. ....
....|..|--- .... ....|--- .... ....|--- .... ....
..34|..|C-2 3C.. ....|F-4 N..C ....|C-1 .... ....
....|..|R-- .... ....|--- ...D ....|--- .... B..5
..1A|..|F-2 8CF. ....|--- ...E ....|F-2 ..F. B..3
....|..|--- .... ....|--- ...F ....|--- .... ....
..4A|..|C-4 KCF. ....|C-4 K.F. ....|A#3 K... ....
..23|..|C-2 8C.. ....|G-4 N.3. B..5|C-2 2F.. ....
....|..|--- .... ....|--- .... B..3|--- .... ....
....|..|--- .... ....|--- .... ....|--- .... ....
..27|..|A#1 3C.. ....|G-4 J..E ....|A#1 3... ....
....|..|--- .... ....|--- .... B..5|--- .... ....
....|..|R-- .... ....|--- .... B..3|R-- .... ....
....|..|--- .... ....|--- .... ....|--- .... ....
..68|..|C-4 KCF. ....|--- ...F B..4|A#3 K.F. ....
..2F|..|G-1 8CF. ....|--- .... ....|G-1 2... ....
....|..|--- .... ....|--- .... B..3|--- .... ....
....|..|R-- .... ....|--- .... ....|R-- .... ....
..27|..|A#1 3C.. ....|--- ...E ....|A#1 3F.. ....
....|..|--- .... ....|--- .... B..5|--- .... ....
..23|..|C-2 .C.. ....|--- .... B..3|C-2 .... ....
....|..|--- .... ....|--- .... ....|--- .... ....
....|..|C-4 KFF. ....|--- ...D ....|A#3 K.F. ....
....|..|--- .... ....|--- .... B..5|--- .... ....
..27|..|F-1 8F.. ....|--- .... B..3|D#6 VC.. ....
....|..|--- .... ....|--- .... ....|--- .... ....
..23|..|C-2 .8.. ....|--- ...C ....|C-2 .F.. ....
....|..|--- .... ....|--- .... B..5|--- .... ....
..3B|..|F-6 VC.. ....|--- .... B..3|A#1 .... ....
....|..|--- .... ....|--- .... ....|--- .... ....
..46|..|C-4 KCF. ....|--- ...B B..4|A#3 K.F. ....
....|..|--- .... ....|--- .... ....|G-2 2... ....
....|..|F-2 8F.. ....|--- .... B..3|F-2 9F.. ....
....|..|--- .... ....|--- .... ....|--- .... ....
....|..|R-- .... ....|G-4 P..F 1160|R-- .... ....
....|..|--- .... ....|--- ...4 21.1|--- .... B..5
..2C|..|D#2 .8.. B..3|G-4 ...F 1160|D#2 .... ....
....|..|--- .... ....|--- ...4 21.1|--- .... ....

[Pattern4]
..5D|.7|C-4 KCFF ....|C-4 KFFF B..3|A#3 KCFF ....
..23|.7|C-2 2C.. ....|A#3 N.3E B..5|C-2 2F.. ....
....|.6|--- .... ....|--- .... B..3|--- .... ....
....|.3|--- .... ....|--- .... ....|--- .... ....
..27|.2|A#1 8C.. ....|A#3 H... ....|A#1 3... ....
....|..|--- .... ....|--- .... B..5|--- .... ....
....|..|R-- .... ....|--- .... B..6|R-- .... ....
..34|..|C-4 KCF. ....|--- ...D B..4|A#3 K.F. ....
..23|..|C-2 88.. ....|--- .... ....|C-2 2F.. ....
....|..|--- .... ....|--- .... B..6|--- .... ....
..27|..|A#1 .8F. B..3|--- ...C ....|A#1 ..F. ....
....|..|--- .... ....|--- .... B..5|--- .... ....
..23|..|G-1 .F.. ....|--- .... B..6|G-1 .C.. ....
..4E|..|A#3 KCF. B..3|--- ...B ....|C-4 KFF. ....
....|..|R-- .... ....|--- .... B..5|R-- .... ....
..27|..|F-1 8C.. ....|--- .... B..6|F-1 2F.. ....
..23|..|A#2 .C.. B..3|--- ...A ....|A#2 3... ....
....|..|R-- .... ....|--- .... B..5|R-- .... ....
..23|..|C-3 .8.. ....|--- .... B..6|C-3 .... ....
..2C|..|C-4 KCF. ....|--- ...B B..4|A#3 K.F. ....
....|..|R-- .... ....|--- .... ....|R-- .... ....
..16|..|D#3 8C.. ....|--- .... B..6|D#2 3F.. ....
....|..|R-- .... B..3|--- ...C ....|R-- .... ....
....|..|--- .... ....|--- .... B..5|--- .... ....
..2C|..|F#3 .CF. ....|--- .... B..6|F#2 .CF. ....
..4A|..|A#3 KCF. B..3|--- ...D ....|C-4 KFF. ....
..25|..|F#2 8F.. ....|--- .... B..5|F#2 2C.. ....
....|..|--- .... ....|--- .... B..3|--- .... ....
....|..|R-- .... ....|--- .... ....|R-- .... ....
..27|..|F-2 .C.. ....|--- ...E ....|F-2 3F.. ....
....|..|--- .... ....|--- .... B..5|--- .... ....
..2C|..|D#2 .C.. ....|--- .... B..6|D#2 .... ....
..68|..|C-4 KCF. ....|--- ...F B..4|A#3 K.F. ....
..27|..|F-2 8CF. ....|--- .... ....|F-2 2... ....
....|..|--- .... ....|--- .... B..3|--- .... ....
....|..|R-- .... ....|--- .... ....|R-- .... ....
..23|..|G-2 .C.. ....|--- ...E ....|G-2 3F.. ....
....|..|--- .... ....|--- .... B..5|--- .... ....
..27|..|F-2 .C.. ....|--- .... B..3|F-2 .... ....
....|..|--- .... ....|--- .... ....|--- .... ....

[Pattern5]
..1A|..|C-3 8C.. 6.30|C-4 KFFF B..1|C-3 2FFF 6.30
....|..|--- .... ....|--- .... B..2|--- .... ....
..1D|..|A#2 .C.. 6.30|--- .... ....|A#2 .F.. 6.30
....|..|--- .... ....|--- .... ....|--- .... ....
..23|..|G-2 .C.. 6.30|C-4 P... B..1|G-2 .... 6.30
....|..|--- .... ....|--- .... B..2|--- .... ....
..27|..|F-5 2CFF 6.30|--- ..C. ....|R-- .... ....
....|..|--- .... ....|--- .... B..1|--- .... ....
..1D|..|A#2 8C.. 6.30|C-4 K.F. B..2|A#2 ..F. 6.30
....|..|--- .... ....|--- .... ....|--- .... ....
..23|..|G-2 .C.. 6.30|--- .... ....|G-2 .F.. 6.30
....|..|--- .... ....|--- .... B..3|--- .... ....
..25|..|F#2 .C.. 6.30|F#4 P... B..1|F#2 .... 6.30
....|..|--- .... ....|--- .... B..2|--- .... ....
..25|..|F#5 2CF. 6.30|--- ..C. ....|R-- .... ....
....|..|--- .... ....|--- .... ....|--- .... ....
..23|..|G-2 8C.. 6.30|C-4 K.F. B..2|G-2 ..F. 6.30
....|..|--- .... ....|--- .... ....|--- .... ....
..25|..|F#2 .C.. 6.30|--- .... ....|F#2 .... 6.30
....|..|--- .... ....|--- .... ....|--- .... ....
..27|..|F-2 .C.. 6.30|G-4 P... B..1|F-2 .F.. 6.30
....|..|--- .... ....|--- .... B..2|--- .... ....
..23|..|G-5 2C.. 6.30|--- ..C. ....|R-- .... ....
....|..|--- .... ....|--- .... ....|--- .... ....
..25|..|F#2 8C.. 6.30|C-4 K.F. B..2|F#2 .... 6.30
....|..|--- .... ....|--- .... ....|--- .... ....
..27|..|F-2 .C.. 6.30|--- .... ....|F-2 .... 6.30
....|..|--- .... ....|--- .... B..3|--- .... ....
..2C|.2|D#2 .C.. 6.30|C-5 P... B..1|D#2 .... 6.30
....|.3|--- .... B..2|--- .... ....|--- .... ....
..1D|.4|A#5 2C.. 6.30|--- ..C. ....|R-- .... ....
....|.5|--- .... ....|--- .... ....|--- .... ....

[Pattern6]
....|.6|A#3 KFFF ....|G-4 NF4F B..3|C-4 KFFF ....
..23|.4|C-2 2CF. ....|--- .... B..5|C-4 6C7. ....
....|.3|--- .... ....|F-4 L... B..3|--- .... ....
....|.2|--- .... ....|--- .... ....|--- ..7. ....
..27|..|A#1 5C.. ....|D#4 .... ....|--- .... ....
....|..|--- .... ....|--- .... B..5|--- ..7. 21.1
....|..|C-5 .F2C 6.30|C-4 .... B..3|C-5 7F2C 6.30
....|..|--- .... ....|--- .... ....|--- .... ....
....|..|C-4 S.FF ....|A#3 .... B..4|A#3 S.FF ....
....|..|--- .... ....|--- .... ....|--- .... ....
....|..|--- .... ....|C-4 ...8 B..3|--- .... ....
....|..|--- .... ....|--- .... ....|--- .... ....
..27|..|A#1 58F. ....|A#3 ...F ....|A#1 2... ....
....|..|--- .... ....|--- .... B..5|--- .... ....
..23|..|C-2 .C.. ....|C-4 .... B..3|C-2 .F.. ....
....|..|--- .... ....|--- .... ....|--- .... ....
..68|..|C-4 KCF. ....|A#3 ...C ....|A#3 K.F. ....
....|..|R-- .... ....|--- .... B..5|R-- .... ....
..23|..|G-2 2C.. ....|C-8 DF.F B..3|G-2 2F.. ....
....|..|--- .... ....|C-8 .... 4..1|--- .... ....
..1D|..|A#2 .C.. ....|C-8 .... ....|A#2 3... ....
....|..|R-- .... ....|C-8 ...A 4..1|R-- .... B..5
....|..|C-5 5F7C 6.30|C-8 ...F B..3|C-5 7.7C 6.30
....|..|--- .... ....|C-8 ...A 4..1|--- .... ....
....|..|C-4 S.FF ....|C-8 ...F ....|A#3 S.FF B..4
....|..|--- .... ....|C-8 ...A 4..1|--- .... ....
..16|..|D#2 5C.. ....|C-8 ...F ....|A#1 3F.. B..3
....|..|--- .... ....|C-8 ...A 4..1|--- .... ....
....|..|C-5 .F7C 6.30|C-8 ...F ....|C-5 7.7C 6.30
....|..|--- .... ....|C-8 ...A 4..1|--- .... B..5
..27|..|F-2 .CFF ....|C-8 ...F ....|F-2 ..FF B..3
....|..|--- .... ....|--- .... ....|--- .... ....

[Pattern7]
....|.6|A#3 KFFF ....|C-8 ...B B..3|C-4 KFFF ....
..1D|.4|D#2 8C.. ....|--- .... B..5|D#2 2F.. ....
....|.3|--- .... ....|C-8 ...A B..3|--- .... ....
....|.2|--- .... ....|--- .... ....|--- .... ....
..23|..|C-2 58.. ....|A#4 L.FF ....|C-2 3... ....
....|..|--- .... ....|--- .... B..5|--- .... ....
....|..|C-5 .F1C 6.30|F#4 ...A B..3|C-5 7.1C 6.30
....|..|--- .... ....|--- .... ....|--- .... ....
....|..|C-4 S.FF ....|C-5 ...F B..4|A#3 S..F ....
....|..|--- .... ....|--- .... ....|--- .... ....
....|..|C-5 5.1C 6.30|A#4 ...A B..3|C-5 7..C 6.30
....|..|--- .... ....|--- .... ....|--- .... ....
..27|..|A#2 .CFF ....|D#5 ..4F ....|A#1 3.FF ....
....|..|--- .... ....|--- .... B..5|--- .... ....
..34|..|C-2 .C.. ....|F-5 .... B..3|C-2 .F.. ....
....|..|--- .... ....|--- .... ....|--- .... ....
....|..|A#3 KFF. ....|F#5 .... ....|C-4 K.F. ....
....|..|--- .... ....|--- .... B..5|--- .... ....
..1A|..|F-2 58F. ....|F-5 ...A B..3|F-2 3... ....
....|..|--- .... ....|--- .... ....|--- .... ....
..23|..|C-2 .8F. ....|G-5 ...F 31.6|C-2 .... ....
....|..|--- .... ....|--- .... B..5|--- .... ....
..1D|..|A#1 .CF. ....|F#5 ...A B..3|A#3 O... ....
....|..|--- .... ....|--- .... ....|G-3 .... ....
....|..|C-4 SFF. ....|F-5 4.FF B..4|A#3 S... ....
....|..|--- .... ....|D#5 2... ....|--- .... ....
..1C|..|G-2 5C.. ....|C-5 4... B..3|G-1 3F.. ....
....|..|--- .... ....|A#4 2... ....|--- .... ....
....|..|C-4 S... ....|G-4 4... ....|A#3 S... ....
....|..|--- .... ....|--- .... B..5|--- .... ....
....|..|C-4 .... ....|D#5 .... B..3|A#3 .... ....
....|..|--- .... ....|--- .... ....|--- .... ....

[Pattern8]
....|..|A#3 KFFF ....|C-5 ..4. B..3|C-4 SFFF ....
..23|..|C-2 8CF. ....|--- .... B..5|G-4 P.8. ....
....|..|G-5 PF8A 5..1|--- .... B..3|--- .... ....
....|..|--- .... ....|--- .... ....|--- ...E ....
..27|..|A#1 5C.. ....|--- .... ....|--- .... ....
....|..|--- .... ....|--- .... ....|--- ...D B..5
..1D|..|A#2 .C.. ....|A#4 N.5F ....|A#2 2F.F B..3
....|..|--- .... ....|--- .... ....|--- .... ....
....|..|C-4 SFFF ....|--- ...7 ....|A#3 S... B..4
....|..|--- .... ....|--- .... ....|--- .... ....
....|..|G-4 P.8C 6.10|A#4 ...F ....|--- .... B..3
....|..|--- .... ....|--- .... ....|--- .... ....
..27|..|A#1 58FF ....|F-5 3CF. ....|A#1 2.F. ....
....|..|--- .... ....|--- .... ....|--- .... B..5
..23|..|G-1 8C.. ....|B-8 GCF. ....|G-1 .F.. B..3
....|..|--- .... ....|--- .... ....|--- .... ....
..23|..|C-4 KFF. ....|G-5 3CF. ....|A#3 K.F. ....
....|..|R-- .... ....|--- .... B..5|R-- .... ....
..1C|..|G-2 5C.. ....|C-6 .CF. B..3|G-2 5F.. ....
....|..|--- .... ....|--- .... ....|--- .... ....
..2C|..|D#2 .C.. ....|F-6 .CF. ....|D#1 3... ....
....|..|--- .... ....|--- .... B..5|--- .... ....
..23|..|C-3 .8.. ....|G-5 .CF. B..3|C-2 5C.. ....
....|..|--- .... ....|--- .... ....|--- .... ....
..34|..|C-4 SCF. ....|C-4 KFFC ....|A#3 SFF. B..4
....|..|--- .... ....|--- .... ....|--- .... ....
..23|..|G-2 5C.. ....|A#5 3CFF B..3|G-2 3... ....
....|..|--- .... ....|--- .... ....|--- .... ....
..23|..|C-2 .8.. ....|G-3 2FF6 ....|C-2 .... ....
....|..|R-- .... ....|--- .... B..5|R-- .... ....
..27|..|F-2 .CF. ....|C-6 3CFF B..3|F-2 .... ....
....|..|--- .... ....|--- .... ....|--- .... ....
..4A|..|C-4 KCF. ....|A#3 2FF6 ....|A#3 K... ....
..23|..|C-2 8C.. ....|--- .... B..5|C-2 2F.. ....
....|..|C-5 5F7C 6.30|F-4 4..F B..3|C-5 7.7C 6.30
....|..|--- .... ....|--- .... ....|--- .... ....
..27|..|A#1 .CFF ....|D#4 2... 21.1|A#1 3F.F ....
....|..|--- .... ....|F-4 .... 31.A|--- .... B..5
....|..|C-5 .F7C 6.30|D#4 4.4. B..3|C-5 7.7C 6.30
....|..|--- .... ....|--- .... ....|--- .... ....
....|..|C-4 S.FF ....|F-4 L... B..4|A#3 S.FF ....
....|..|--- .... ....|--- .... ....|--- .... ....
....|..|--- .... ....|F-4 ...A B..3|--- .... ....
....|..|--- .... ....|--- .... ....|--- .... ....
..27|..|A#1 5C.. ....|F-4 N..F ....|A#1 3F.. ....
....|..|--- .... ....|--- .... B..5|--- .... ....
..23|..|C-2 .C.. ....|F#4 L... B..3|C-2 .... ....
....|..|--- .... ....|--- .... ....|--- .... ....
....|..|C-4 KFF. ....|F-4 .... 31.4|A#3 K.F. ....
....|..|--- .... ....|--- .... B..5|--- .... ....
..27|..|F-1 5F.. ....|D#4 .... B..3|D#6 VC.. ....
....|..|--- .... ....|--- .... ....|--- .... ....
..23|..|C-2 .8.. ....|C-4 N... ....|C-2 .F.. ....
....|..|--- .... ....|--- .... B..5|--- .... ....
..3B|..|F-6 VC.. ....|A#3 L... B..3|A#3 O.F. ....
....|..|--- .... ....|--- .... ....|G-3 .... ....
....|..|C-4 2FF. 1160|C-4 .... B..4|D#4 .... ....
....|..|--- .... ....|--- .... ....|--- .... ....
....|..|--- .... ....|--- .... B..3|F-3 .... ....
....|..|--- .... ....|--- .... ....|--- .... ....
....|..|C-4 .... 1160|A#3 ...B ....|C-4 .... ....
....|..|--- .... ....|--- .... B..5|--- .... ....
....|..|C-4 .... 1160|C-4 ...A B..3|G-3 .... ....
....|..|--- .... ....|--- .... ....|--- .... ....

[Pattern9]
....|.6|A#3 KFFF ....|A#3 ...9 B..3|C-4 KFFF ....
..23|.4|C-2 2CF. ....|--- .... B..5|C-4 6C7. ....
....|.3|--- .... ....|C-4 .... B..3|--- .... ....
....|.2|--- .... ....|--- .... ....|--- ..7. ....
..27|..|A#1 5C.. ....|D#4 ..9F ....|--- .... ....
....|..|--- .... ....|--- .... B..5|--- ..7. 21.1
....|..|C-5 .F2C 6.30|--- ...A B..3|C-5 7F2C 6.30
....|..|--- .... ....|--- .... ....|--- .... ....
....|..|C-4 S.FF ....|A#3 ..4F B..4|A#3 S.FF ....
....|..|--- .... ....|--- .... ....|--- .... ....
....|..|--- .... ....|G-3 .... B..3|--- .... ....
....|..|--- .... ....|--- .... ....|--- .... ....
..27|..|A#1 58F. ....|--- ...A ....|A#1 2... ....
....|..|--- .... ....|--- .... B..5|--- .... ....
..23|..|C-2 .C.. ....|C-4 ...F B..3|C-2 .F.. ....
....|..|--- .... ....|--- .... ....|--- .... ....
..68|..|C-4 KCF. ....|--- ...A ....|A#3 K.F. ....
....|..|R-- .... ....|--- .... B..5|R-- .... ....
..23|..|G-2 2C.. ....|C-8 DF.F B..3|G-2 2F.. ....
....|..|--- .... ....|C-8 .... 4..1|--- .... ....
..1D|..|A#2 .C.. ....|C-8 .... ....|A#2 3... ....
....|..|R-- .... ....|C-8 ...A 4..1|R-- .... B..5
....|..|C-5 5F7C 6.30|C-8 ...F B..3|C-5 7.7C 6.30
....|..|--- .... ....|C-8 ...A 4..1|--- .... ....
....|..|C-4 S.FF ....|C-8 ...F ....|A#3 S.FF B..4
....|..|--- .... ....|C-8 ...A 4..1|--- .... ....
..16|..|D#2 5C.. ....|C-8 ...F ....|A#1 3F.. B..3
....|..|--- .... ....|C-8 ...A 4..1|--- .... ....
....|..|C-5 .F7C 6.30|C-8 ...F ....|C-5 7.7C 6.30
....|..|--- .... ....|C-8 ...A 4..1|--- .... B..5
..27|..|F-2 .CFF ....|C-8 ...F ....|F-2 ..FF B..3
....|..|--- .... ....|--- .... ....|--- .... ....

[Pattern10]
....|..|A#3 KFFF ....|C-5 ..4. B..3|C-4 SFFF ....
..23|..|C-2 8CF. ....|--- .... B..5|G-4 P.8. ....
....|..|G-5 PF8A 5..1|--- .... B..3|--- .... ....
....|..|--- .... ....|--- .... ....|--- ...E ....
..27|..|A#1 5C.F ....|--- .... ....|--- .... ....
....|..|--- .... ....|--- .... ....|--- ...D B..5
..1D|..|A#2 .C.. ....|A#4 N.5F ....|A#2 2F.F B..3
....|..|--- .... ....|--- .... ....|--- .... ....
....|..|C-4 SFF. ....|--- ...7 ....|A#3 S... B..4
....|..|--- .... ....|--- .... ....|--- .... ....
....|..|G-4 P.8C 6.10|A#4 ...F ....|--- .... B..3
....|..|--- .... ....|--- .... ....|--- .... ....
..27|..|A#1 58FF ....|F-5 3CF. ....|A#1 2.F. ....
....|..|--- .... ....|--- .... ....|--- .... B..5
..23|..|G-1 8C.. ....|B-8 GCF. ....|G-1 .F.. B..3
....|..|--- .... ....|--- .... ....|--- .... ....
..23|..|C-4 KFF. ....|G-5 3CF. ....|A#3 K.F. ....
....|..|R-- .... ....|--- .... B..5|R-- .... ....
..1C|..|G-2 5C.. ....|C-6 .CF. B..3|G-2 5F.. ....
....|..|--- .... ....|--- .... ....|--- .... ....
..2C|..|D#2 .C.. ....|F-6 .CF. ....|D#1 3... ....
....|..|--- .... ....|--- .... B..5|--- .... ....
..23|..|C-4 KFF. ....|G-5 .CF. B..3|A#3 K.F. ....
....|..|--- .... ....|--- .... ....|--- .... ....
..34|..|C-4 SCF. ....|C-4 KFFC ....|A#3 S... B..4
....|..|--- .... ....|--- .... ....|--- .... ....
..23|..|G-2 5C.. ....|A#5 3CFF B..3|G-2 3... ....
....|..|--- .... ....|--- .... ....|--- .... ....
..23|..|C-2 .8.. ....|G-3 2FF6 ....|C-2 .... ....
....|..|R-- .... ....|--- .... B..5|R-- .... ....
..27|..|F-2 .CF. ....|C-6 3CFF B..3|F-2 .... ....
....|..|--- .... ....|--- .... ....|--- .... ....
..4A|..|C-4 KCF. ....|A#3 2FF6 ....|A#3 K... ....
..23|..|C-2 8C.. ....|--- .... B..5|C-2 2F.. ....
....|..|C-5 5F7C 6.30|F-4 4..F B..3|C-5 7.7C 6.30
....|..|--- .... ....|--- .... ....|--- .... ....
..27|..|A#1 .CFF ....|D#4 2... 21.1|A#1 3F.F ....
....|..|--- .... ....|F-4 .... 31.A|--- .... B..5
....|..|C-5 .F7C 6.30|D#4 4.4. B..3|C-5 7.7C 6.30
....|..|--- .... ....|--- .... ....|--- .... ....
....|..|C-4 S.FF ....|F-4 L... B..4|A#3 S.FF ....
....|..|--- .... ....|--- .... ....|--- .... ....
....|..|--- .... ....|F-4 ...A B..3|--- .... ....
....|..|--- .... ....|--- .... ....|--- .... ....
..27|..|A#1 5C.. ....|A#4 N..F ....|A#1 3F.. ....
....|..|--- .... ....|--- .... B..5|--- .... ....
..23|..|C-2 .C.. ....|F-4 L..A B..3|C-2 .... ....
....|..|--- .... ....|--- .... ....|--- .... ....

[Pattern11]
....|..|C-4 PF1F ....|G-4 ...F ....|C-4 SFFF ....
....|..|--- .... ....|--- .... ....|--- .... B..5
....|..|--- .... ....|--- .... ....|--- .... B..3
....|..|--- .... ....|--- .... 11.A|C-4 ..CC ....
....|..|C-4 K... ....|--- .... ....|C-4 ..FF ....
....|..|--- .... ....|G-4 ...A ....|--- .... B..5
....|..|C-4 .... ....|--- .... ....|C-4 .... B..3
....|..|--- .... ....|--- .... 11.A|--- .... ....
..23|..|G-4 F81. ....|A#6 M8FF 212A|G-4 4.A. B..4
....|..|--- .... ....|R-- .... ....|--- .... ....
..25|..|B-8 G8.. ....|C-4 K... ....|F#4 ..FA B..3
....|..|--- .... ....|--- .... ....|--- .... B..2
....|..|F#4 4FA. ....|F-6 M... 212A|C-4 S..F B..4
....|..|--- .... ....|R-- .... ....|--- .... B..5
..27|..|B-8 G8F. ....|D#6 .... 212A|C-4 .... B..6

[Pattern12]
....|.F|C-4 IFFF ....|C-4 KFFF B..3|A#3 KFFF ....
..23|.A|C-2 9... ....|C-5 6.7. B..5|C-2 9CF. ....
....|.5|--- .... ....|--- .... B..3|--- .... ....
....|.2|--- .... 117A|--- .... ....|--- .... ....
..1A|..|C-4 TCF. ....|--- .... ....|C-4 QFFE ....
....|..|--- .... ....|--- .... B..5|--- .... ....
....|..|A-3 RFF. ....|--- .... B..3|G#3 R..F ....
....|..|--- .... ....|--- .... ....|--- .... ....
....|..|C-4 S... ....|--- .... B..4|A#3 S... ....
....|..|--- .... ....|--- .... ....|--- .... ....
....|..|--- .... ....|--- .... B..3|--- .... ....
....|..|--- .... ....|--- .... ....|--- .... ....
..1A|..|C-4 TCF. ....|--- .... ....|C-4 Q..E ....
....|..|--- .... ....|--- .... B..5|--- .... ....
....|..|C-4 IFF. ....|--- .... B..3|C-4 K..F ....
..23|..|C-2 9... 6.20|--- .... ....|C-2 2CF. 6.20
....|..|C-4 I... ....|--- .... ....|C-4 KFF. ....
..23|..|C-2 9CF. ....|--- .... B..5|C-2 9... ....
....|..|--- .... ....|--- .... B..3|--- .... ....
....|..|--- .... ....|--- .... ....|--- .... ....
..1A|..|C-4 TCF. ....|A#8 E.F. ....|C-4 Q..E ....
....|..|--- .... ....|--- .... B..5|--- .... ....
....|..|A-3 RFF. ....|--- .... B..3|G#3 R..F ....
....|..|--- .... ....|--- .... ....|--- .... ....
...5|..|C-4 S... ....|C-6 MEF. B..4|A#3 S... ....
....|..|--- .... ....|R-- .... ....|--- .... ....
....|..|D#2 7F.. 4..1|F#6 .... ....|D#2 9... B..3
....|..|--- .... ....|R-- .... ....|--- .... ....
..1A|..|C-4 TCF. ....|C-7 .... ....|C-4 Q..E ....
....|..|--- .... ....|R-- .... B..5|--- .... ....
....|.F|C-4 IFF. ....|C-4 KFF. B..3|C-4 K..F ....
..27|.A|F-2 9... ....|F-5 P.7. ....|F-2 9CF. ....
....|.5|--- .... ....|--- .... ....|--- .... ....
....|.2|--- .... ....|--- .... B..5|--- .... ....
....|..|--- .... ....|--- .... B..3|--- .... ....
....|..|--- .... ....|--- .... ....|--- .... ....
....|.F|C-4 I... ....|C-4 K.F. ....|C-4 KFF. ....
..25|.A|F#2 9... ....|F#5 6.7. B..5|F#2 9CF. ....
....|..|A-3 R... ....|--- .... B..3|G#3 RFF. ....
....|..|--- .... ....|--- .... ....|--- .... ....
....|..|C-4 S... ....|--- .... B..4|A#3 SF.. ....
....|..|--- .... ....|--- .... ....|--- .... ....
..25|..|F#2 9... 6.60|--- .... B..3|F#2 9C.. 6.60
....|..|--- .... ....|--- .... ....|--- .... ....
..1A|..|C-4 TCF. ....|--- .... ....|C-4 QFF. ....
....|..|--- .... ....|--- .... B..5|--- .... ....
..2C|..|D#2 9FF. 6.60|--- .... B..3|D#2 9C.. 6.60
....|..|--- .... ....|--- .... ....|--- .... ....
....|..|C-4 K... ....|--- .... ....|A#3 KFF. ....
..27|..|F-2 9... ....|--- .... B..5|F-2 9C.. ....
....|..|--- .... ....|--- .... B..3|--- .... ....
....|..|--- ...A ....|--- .... ....|F-2 7F.A 4..1
..27|..|F-2 ...F ....|--- .... ....|F-2 9C.F ....
....|..|--- .... ....|--- .... B..5|--- .... ....
..25|..|F#2 5... ....|--- .... B..3|F#2 .C.. ....
....|..|--- .... ....|--- .... ....|--- .... ....
..4E|..|C-4 SCF. ....|--- .... B..4|A#3 SCF. ....
....|..|--- .... ....|--- .... ....|--- .... ....
..58|..|C-4 KC.. ....|F#5 P... B..3|A#3 KC.. ....
....|..|--- .... ....|--- ...A ....|--- .... ....
....|..|C-4 SF.. ....|F-5 ...F ....|A#3 SF.. ....
....|..|--- .... ....|--- ...A B..5|--- .... ....
....|..|C-4 .... ....|D#5 ...F B..3|A#3 .... ....
....|..|--- .... ....|--- ...A ....|--- .... ....

[Pattern13]
....|.6|A#3 KFFF ....|C-8 ...B B..3|C-4 KFFF ....
..1D|.4|D#2 8C.. ....|--- .... B..5|D#2 2F.. ....
....|.3|--- .... ....|C-8 ...A B..3|--- .... ....
....|.2|--- .... ....|--- .... ....|--- .... ....
..23|..|C-2 58.. ....|A#4 L.FF ....|C-2 3... ....
....|..|--- .... ....|--- .... B..5|--- .... ....
....|..|C-5 .F1C 6.30|F#4 ...A B..3|C-5 7.1C 6.30
....|..|--- .... ....|--- .... ....|--- .... ....
....|..|C-4 S.FF ....|C-5 ...F B..4|A#3 S..F ....
....|..|--- .... ....|D#5 2... ....|--- .... ....
....|..|C-5 5.1C 6.30|C-5 L... B..3|C-5 7..C 6.30
....|..|--- .... ....|--- .... ....|--- .... ....
..27|..|A#2 .CFF ....|D#5 ..4. ....|A#1 3.FF ....
....|..|--- .... ....|--- .... B..5|--- .... ....
....|..|A#3 KFF. ....|F-5 .... B..3|C-4 K... ....
....|..|--- .... ....|--- .... ....|--- .... ....
..34|..|C-2 5C.. ....|F#5 .... ....|C-2 3F.. ....
....|..|--- .... ....|--- .... B..5|--- .... ....
..1A|..|F-2 .8F. ....|F-5 .... B..3|F-2 ..F. ....
....|..|--- .... ....|--- .... ....|--- .... ....
....|..|C-4 KFF. ....|D#5 .... 31.6|A#3 K... ....
....|..|--- .... ....|--- .... B..5|--- .... ....
..1D|..|A#1 5CF. ....|C-5 .... B..3|A#3 O... ....
....|..|--- .... ....|--- .... ....|G-3 .... ....
....|..|C-4 SFF. ....|F-5 4.F. B..4|A#3 S... ....
....|..|--- .... ....|D#5 2... ....|--- .... ....
..1C|..|G-2 5C.. ....|C-5 4... B..3|G-1 3F.. ....
....|..|--- .... ....|A#4 2... ....|--- .... ....
....|..|C-4 S... ....|G-4 4... ....|A#3 S... ....
....|..|--- .... ....|--- .... B..5|--- .... ....
....|..|C-4 .... ....|D#5 .... B..3|A#3 .... ....
....|..|--- .... ....|--- .... ....|--- .... ....

[Pattern14]
....|.F|A#3 KFFF B..3|F-4 UFAF ....|C-4 KFFF ....
..4E|.A|F-1 9... B..5|--- .... ....|F-1 9CF. 5..2
....|.5|--- .... B..3|--- ...7 ....|--- .... ....
....|.2|--- .... 117A|--- .... 11.1|--- .... ....
..12|..|F-2 .F.. ....|D#4 ...A 31.F|F-5 5E1. ....
....|..|--- .... ....|--- .... B..5|--- .... 21.D
....|..|F-4 5.6C ....|D#4 ...F B..3|G#3 RFF. ....
....|..|--- .... ....|--- .... ....|--- .... ....
....|..|C-4 S.FF ....|--- ...7 B..4|A#3 S... ....
....|..|--- .... ....|--- .... ....|--- .... ....
....|..|--- .... ....|A-3 R.FE B..3|--- .... ....
....|..|--- .... ....|--- .... ....|--- .... ....
..12|..|F-5 5E1. ....|F-4 3.AF ....|A#1 9... ....
....|..|--- .... 21.D|--- .... B..5|--- .... ....
....|..|C-2 9FF. ....|--- ...7 B..3|C-4 K... ....
..27|..|--- .... 6.20|--- .... ....|F-1 2CF. 6.20
....|..|C-4 K... ....|D#4 ...A ....|A#3 KFF. ....
..27|..|R-- .... B..5|--- .... ....|F-1 9CF. ....
....|..|G-2 9.B. B..3|F-4 .... ....|--- .... ....
....|..|--- .... ....|--- .... ....|--- .... ....
....|..|A#2 ..F. 6.50|D#4 ...F ....|F-3 7F7B ....
....|..|--- .... B..5|--- .... ....|--- .... ....
....|..|F-4 5.7C B..3|C-4 ...A ....|C-3 9.BF ....
....|..|--- .... ....|--- .... ....|--- .... ....
....|..|C-4 S.FF ....|F-4 9..F B..4|A#3 S.F. ....
....|..|--- .... ....|--- .... ....|--- .... ....
..1D|..|D#3 5CF. B..3|D#4 U... ....|C-3 9.B. ....
....|..|--- .... ....|--- .... ....|--- .... ....
....|..|F-4 .F7C ....|A-3 R.FE ....|D#3 .... ....
....|..|--- .... B..5|--- .... 11.A|--- .... ....
..27|..|F-3 ..BF B..3|F-4 4..A ....|F-2 .CF. ....
....|..|--- .... ....|--- .... ....|--- .... ....
....|..|A#3 K.F. ....|G-4 ..AF 313F|C-4 KFF. ....
..23|..|G-2 2F.. B..5|--- .... ....|G-2 9CF. ....
....|..|--- .... B..3|--- ...7 ....|--- .... ....
....|..|R-- .... ....|--- .... ....|R-- .... ....
....|..|A#3 K.F. ....|G-4 ...F ....|C-4 KFF. ....
..23|..|G-2 2F.. B..5|--- .... ....|G-2 9CF. ....
....|..|--- .... B..3|--- ...7 ....|--- .... ....
....|..|R-- .... ....|--- .... ....|R-- .... ....
....|..|A#3 K.F. B..4|F#4 ...F ....|C-4 KFF. ....
..25|..|F#2 2F.. ....|--- .... ....|F#2 9CF. ....
....|..|--- .... B..3|--- ...7 ....|--- .... ....
....|..|R-- .... ....|--- .... ....|R-- .... ....
....|..|A#3 K.F. ....|F#4 ...F ....|C-4 KFF. ....
..25|..|F#2 2F.. B..5|--- .... ....|F#2 9CF. ....
....|..|--- .... B..3|--- .... ....|--- .... ....
....|..|--- .... ....|--- .... ....|--- .... ....
....|..|A#3 K.F. ....|F-4 .... ....|C-4 KFF. ....
..34|..|F-2 4F.. 4..1|--- .... B..5|C-4 3C.. 911F
....|..|--- .... B..3|D#4 .... ....|--- .... ....
....|..|--- .... ....|--- .... ....|--- .... ....
....|..|--- .... ....|C-4 .... ....|--- .... ....
....|..|--- .... B..5|--- .... ....|--- .... ....
....|..|--- .... B..3|--- .... 11.C|--- .... ....
....|..|--- .... ....|--- .... ....|--- .... ....
....|..|--- .... B..4|D#4 .... ....|--- .... ....
....|..|--- .... ....|--- .... ....|--- .... ....
....|..|--- .... B..3|--- .... ....|--- .... ....
....|..|--- .... ....|--- .... ....|--- .... ....
....|..|--- .... ....|F-4 .... 31.8|--- .... ....
....|..|--- .... B..5|--- .... ....|--- .... ....
....|..|--- .... B..3|C-4 .... ....|--- .... ....
....|..|--- .... ....|--- .... ....|--- .... ....

[Pattern15]
....|.F|A#3 KFFF B..3|F-4 UFAF ....|C-4 KFFF ....
..27|.A|F-1 9... B..5|--- .... ....|F-1 9CF. 5..2
....|.5|--- .... B..3|--- ...7 ....|--- .... ....
....|.2|--- .... 117A|--- .... 11.1|--- .... ....
..12|..|F-2 .... ....|D#4 ...A 31.F|F-5 5E1. ....
....|..|--- .... ....|--- .... B..5|--- .... 21.D
....|..|F-5 5.6C ....|D#4 ...F B..3|G#3 RFF. ....
....|..|--- .... ....|--- .... ....|--- .... ....
....|..|C-4 S.FF ....|--- ...7 B..4|A#3 S... ....
....|..|--- .... ....|--- .... ....|--- .... ....
....|..|--- .... ....|A-3 R.FE B..3|--- .... ....
....|..|--- .... ....|--- .... ....|--- .... ....
..12|..|F-5 5E1. ....|F-4 U.AF ....|A#1 9... ....
....|..|--- .... 21.D|--- .... B..5|--- .... ....
....|..|C-2 9FF. ....|--- ...7 B..3|C-4 K... ....
..27|..|--- .... 6.20|--- .... ....|F-1 2CF. 6.20
....|..|C-4 K... ....|D#4 ...A ....|A#3 KFF. ....
..27|..|R-- .... B..5|--- .... ....|F-1 9CF. ....
....|..|G-2 9.B. B..3|F-4 .... ....|--- .... ....
....|..|--- .... ....|--- .... ....|--- .... ....
....|..|A#2 ..F. 6.50|D#4 ...F ....|F-3 7F7B ....
....|..|--- .... B..5|--- .... ....|--- .... ....
....|..|F-4 5.7C B..3|C-4 ...A ....|C-3 9.BF ....
....|..|--- .... ....|--- .... ....|--- .... ....
....|..|C-4 S.FF ....|F-4 9..F B..4|A#3 S.F. ....
....|..|--- .... ....|--- .... ....|--- .... ....
..1D|..|D#3 5CF. B..3|D#4 U... ....|C-3 9.B. ....
....|..|--- .... ....|--- .... ....|--- .... ....
....|..|F-4 .F7C ....|A-3 R.FE ....|D#3 .... ....
....|..|--- .... B..5|--- .... 11.A|--- .... ....
..27|..|F-3 ..BF B..3|F-4 4..A ....|F-2 .CF. ....
....|..|--- .... ....|--- .... ....|--- .... ....
....|..|C-4 K.F. ....|G-4 U.AF 313F|A#3 KFF. ....
..23|..|C-1 9... B..5|--- .... ....|C-1 9CF. ....
....|..|--- .... B..3|--- .... ....|--- .... ....
....|..|--- .... ....|--- .... ....|--- .... ....
..12|..|C-2 .F.. ....|F-4 ...A ....|C-5 5A1. ....
....|..|--- .... B..5|--- .... ....|--- .... 21.D
....|..|C-4 5.6C B..3|G-4 .... ....|G#3 RFF. ....
....|..|--- .... ....|--- .... ....|--- .... ....
....|..|C-4 S.FF B..4|C-8 D.CF ....|A#3 S... ....
....|..|--- .... ....|C-8 .... 4..1|--- .... ....
....|..|--- .... B..3|C-8 .... ....|--- .... ....
....|..|--- .... ....|C-8 ...8 4..1|--- .... ....
..12|..|C-5 5E1. ....|C-8 ...F ....|C-1 9... ....
....|..|--- .... 21.D|C-8 ...8 4..1|--- .... B..5
....|..|C-2 9FF. B..3|C-8 ...F ....|C-4 K... ....
..34|..|--- .... ....|C-8 ...8 4..1|C-1 2CF. ....
....|..|C-4 K... ....|C-8 ...F ....|A#3 KFF. ....
..34|..|R-- .... B..5|C-8 ...8 4..1|C-1 9CF. ....
....|..|G-2 9.B. B..3|C-8 ...F ....|--- .... ....
....|..|--- .... ....|C-8 ...8 4..1|--- .... ....
....|..|A#2 ..F. ....|C-8 ..FF ....|F-3 7F7B ....
....|..|--- .... B..5|--- .... ....|--- .... ....
....|..|C-4 5.7C B..3|C-8 ...A 4..1|C-3 9.BF ....
....|..|--- .... ....|--- .... ....|--- .... ....
....|..|C-4 S.FF B..4|G-4 U.AF ....|A#3 S.F. ....
....|..|--- .... ....|--- .... ....|--- .... ....
..34|..|C-2 5CF. B..3|--- ...7 ....|C-3 9.B. ....
....|..|--- .... ....|--- .... ....|--- .... ....
....|..|C-4 .F7C ....|F#4 ...F ....|C-1 ..F. ....
....|..|--- .... B..5|--- .... ....|--- .... ....
..27|..|A#2 9.BF B..3|--- ...7 ....|F-2 .CF. ....
....|..|--- .... ....|--- .... ....|--- .... ....

[Pattern16]
....|.F|C-4 KFFF B..3|F-4 UFAF ....|A#3 KFFF ....
..4E|.A|F-1 9... B..5|--- .... ....|F-1 9CF. ....
....|.5|--- .... B..3|--- ...8 ....|--- .... ....
....|.2|--- .... 117A|--- .... 11.1|--- .... ....
..12|..|F-2 .F.. ....|D#4 ...A 31.F|F-5 5E1. ....
....|..|--- .... ....|--- .... B..5|--- .... 21.D
....|..|F-5 5.6C ....|D#4 ...F B..3|G#3 RFF. ....
....|..|--- .... ....|--- .... ....|--- .... ....
....|..|C-4 S.FF ....|--- ...8 B..4|A#3 S... ....
....|..|--- .... ....|--- .... ....|--- .... ....
....|..|--- .... ....|A-3 R.FE B..3|--- .... ....
....|..|--- .... ....|--- .... ....|--- .... ....
..12|..|F-5 5E1. ....|F-4 U.AF ....|A#1 9... ....
....|..|--- .... 21.D|--- .... B..5|--- .... ....
....|..|C-2 9FF. ....|--- ...8 B..3|A#3 K... ....
..27|..|--- .... 6.20|--- .... ....|F-1 2CF. 6.20
....|..|C-4 K... ....|D#4 ...A ....|A#3 KFF. ....
..27|..|R-- .... B..5|--- .... ....|F-1 9CF. ....
....|..|G-2 9.B. B..3|F-4 .... ....|--- .... ....
....|..|--- .... ....|--- .... ....|--- .... ....
....|..|A#2 ..F. 6.50|D#4 ...F ....|F-3 7F7B ....
....|..|--- .... B..5|--- .... ....|--- .... ....
....|..|F-4 5.7C B..3|C-4 ...A ....|C-3 9.BF ....
....|..|--- .... ....|--- .... ....|--- .... ....
....|..|C-4 S.FF ....|F-4 9..F B..4|A#3 S.F. ....
....|..|--- .... ....|--- .... ....|--- .... ....
..1D|..|D#3 5CF. B..3|D#4 U... ....|C-3 9.B. ....
....|..|--- .... ....|--- .... ....|--- .... ....
....|..|F-4 .F7C ....|A-3 R.FE ....|D#3 .... ....
....|..|--- .... B..5|--- .... 11.A|--- .... ....
..27|..|F-3 ..BF B..3|F-4 4..A ....|F-2 .CF. ....
....|..|--- .... ....|--- .... ....|--- .... ....
....|..|A#3 K.F. ....|C-4 U.AF 313F|C-4 KFF. ....
..23|..|C-1 9... B..5|--- .... ....|C-1 9CF. ....
....|..|--- .... B..3|--- .... ....|--- .... ....
....|..|--- .... ....|--- .... ....|--- .... ....
..12|..|C-2 .F.. ....|G-6 N..E ....|C-5 5A1. ....
....|..|--- .... B..5|--- .... ....|--- .... 21.D
....|..|C-4 5.6C B..3|--- .... 11.2|G#3 RFF. ....
....|..|--- .... ....|--- .... ....|--- .... ....
....|..|C-4 S.FF B..4|C-6 .... ....|A#3 S... ....
....|..|--- .... ....|--- .... ....|--- .... ....
....|..|--- .... B..3|G-6 ...A ....|--- .... ....
....|..|--- .... ....|--- .... ....|--- .... ....
..12|..|C-5 5E1. ....|A#5 ...F ....|C-1 9... ....
....|..|--- .... 21.D|--- .... ....|--- .... B..5
....|..|C-2 9FF. B..3|C-6 .... ....|A#3 K... ....
..34|..|--- .... ....|--- .... ....|C-1 2CF. ....
....|..|A#3 K... ....|A#5 ...A ....|C-4 KFF. ....
..34|..|R-- .... B..5|--- .... ....|C-1 9CF. ....
....|..|G-2 9.B. B..3|A#3 4.FF ....|--- .... ....
....|..|--- .... ....|--- .... 4..1|--- .... ....
....|..|A#2 ..F. ....|C-4 .... ....|F-3 7F7B ....
....|..|--- .... B..5|--- .... ....|--- .... ....
....|..|C-4 5.7C B..3|D#4 ..A. ....|C-3 9.BF ....
....|..|--- .... ....|--- .... ....|--- .... ....
....|..|C-4 S.FF B..4|F-4 9... ....|A#3 S.F. ....
....|..|--- .... ....|--- .... ....|--- .... ....
..34|..|C-2 5CF. B..3|D#4 4... ....|C-3 9.B. ....
....|..|--- .... ....|--- .... ....|--- .... ....
....|..|C-4 SFF. ....|--- .... 11.8|A#3 S.F. ....
....|..|--- .... B..5|--- .... ....|--- .... ....
....|..|C-4 .... B..3|D#4 ...A ....|A#3 .... ....
....|..|--- .... ....|--- .... ....|--- .... ....

[Pattern17]
....|..|R-- R... ....|--- .... ....|--- .... B..3
....|..|R-- E... ....|--- .... ....|--- .... B..5
....|..|R-- V... ....|--- .... ....|R-- 2... B..3
....|..|R-- I... ....|--- .... ....|R-- O... ....
....|..|R-- S... ....|--- .... ....|R-- 2... B..4
....|..|R-- I... ....|--- .... ....|R-- 3... ....
....|..|R-- O... ....|--- .... ....|R-- .... B..3
....|..|R-- N... ....|--- .... ....|--- .... ....
....|..|B-8 EFF9 ....|F#7 2FFB ....|A#8 EFF9 ....
....|..|--- ...A ....|--- ...A ....|--- ...A B..5
....|..|--- ...B ....|--- ...9 ....|--- ...B B..3
....|..|--- ...C ....|--- ...8 ....|--- ...C ....
....|..|--- ...D ....|--- ...7 ....|--- ...D ....
....|..|--- ...E ....|--- ...6 ....|--- ...E B..5
....|..|--- ...F ....|--- ...5 ....|--- ...F B..3
....|..|--- .... ....|--- ...4 ....|--- .... B..4

[Pattern18]
....|.F|D#4 IFFF ....|D#4 KFFF B..3|C#4 KFFF ....
..1D|.A|D#1 9C.. ....|D#5 6.7. B..5|D#2 9CF. ....
....|.5|--- .... 11.4|--- .... B..3|--- .... ....
....|.2|--- .... ....|--- .... ....|--- .... ....
..16|..|D#4 ACD. ....|--- .... ....|D#4 2FDE ....
....|..|--- .... ....|--- .... B..5|--- .... ....
....|..|A-3 RFF. ....|--- .... B..3|G#3 R.FF ....
....|..|--- .... ....|A#4 2.E. ....|--- .... ....
....|..|D#4 S... ....|C-5 7... 23.5|C#4 S... B..4
....|..|--- .... ....|--- .... ....|--- .... ....
....|..|--- .... B..3|D#5 U... 3114|--- .... ....
....|..|--- .... ....|--- .... ....|--- .... ....
..16|..|D#4 ACD. ....|--- .... ....|D#4 2.DE ....
....|..|--- .... ....|--- ...A ....|--- .... B..5
....|..|D#4 IFF. ....|F#5 ...F 3114|D#4 K.FF B..3
....|..|D#2 9... 6.20|--- .... ....|D#2 2... 6.20
....|..|D#4 I... ....|--- .... ....|D#4 K... ....
....|..|D#2 7... 4..1|--- ...A ....|D#2 9... B..5
....|..|--- .... ....|D#5 2..F ....|--- .... B..3
....|..|--- .... ....|--- .... ....|--- .... ....
..16|..|D#4 ACD. ....|--- .... 11.C|D#4 2.DE ....
....|..|--- .... ....|--- ...A B..5|--- .... ....
....|..|D#5 VC7. 6.50|F#5 .... B..3|D#4 ..7. 6.50
....|..|--- .... ....|--- .... ....|--- .... ....
....|..|D#4 SFF. ....|--- .... B..4|C#4 SF.F ....
....|..|--- .... ....|--- ...6 ....|--- .... ....
....|..|D#5 VC7. 6.50|D#5 ...A B..3|D#4 2.7E 6.50
....|..|--- .... ....|--- .... ....|--- .... ....
..16|..|D#4 ACF. ....|--- .... 11.C|D#4 ..DF ....
....|..|--- .... ....|--- ...6 B..5|--- .... ....
....|.F|D#4 IFF. ....|D#4 K.FF B..3|D#4 K... ....
..21|.A|G#2 9... ....|G#5 P.7. ....|G#2 9CF. ....
....|.5|--- .... ....|--- .... ....|--- .... ....
....|.2|--- .... ....|--- .... B..5|--- .... ....
....|..|--- .... ....|--- .... B..3|--- .... ....
....|..|--- .... ....|--- .... ....|--- .... ....
....|.F|D#4 I... ....|D#4 K.F. ....|D#4 KFF. ....
..1F|.A|A-2 9... ....|A-5 6.7. B..5|A-2 9CF. ....
....|..|A-3 R... ....|--- .... B..3|G#3 RFF. ....
....|..|--- .... ....|--- .... ....|--- .... ....
....|..|D#4 S... ....|A#5 U.4. B..4|C#4 SF.. ....
....|..|--- .... ....|--- .... ....|--- .... ....
..1F|..|A-2 9... 6.60|--- .... B..3|A-2 9C.. 6.60
....|..|--- .... ....|--- .... ....|--- .... ....
..16|..|D#4 ACF. ....|--- .... 11.6|D#4 2FDE ....
....|..|--- .... ....|--- .... B..5|--- .... ....
..25|..|F#2 9FF. 6.60|A#5 .... B..3|F#2 9C.F 6.60
....|..|--- .... ....|--- .... ....|--- .... ....
....|..|D#4 K... ....|G#5 .... 6.30|C#4 KFF. ....
..21|..|G#2 9... ....|--- .... B..5|G#2 9C.. ....
....|..|--- .... ....|F#5 .... B..3|--- .... ....
....|..|--- ...A ....|--- .... ....|G#2 7F.A 4..1
..21|..|G#2 ...F ....|G#5 .... ....|G#2 9C.F ....
....|..|--- .... ....|--- .... B..5|--- .... ....
..1F|..|A-2 5... ....|A#5 .... B..3|A-2 .C.. ....
....|..|--- .... ....|G-5 2.E. 23.5|--- .... ....
..42|..|D#4 SCF. ....|G#5 U... 31.4|C#4 SCF. B..4
....|..|--- .... ....|--- .... ....|--- .... ....
..4A|..|D#4 KC.. ....|F#5 .... ....|C#4 KC.. B..3
....|..|--- .... ....|--- .... ....|--- .... ....
....|..|D#4 SF.. ....|D#5 .... ....|C#4 SF.. ....
....|..|--- .... ....|--- .... B..5|--- .... ....
....|..|D#4 .... ....|C#5 .... B..3|C#4 .... ....
....|..|--- .... ....|--- .... ....|--- .... ....

[Pattern19]
....|.F|C-4 IFFF ....|C-4 KFFF B..3|A#3 KFFF ....
..23|.A|C-2 9... ....|C-5 6.7. B..5|C-2 9CF. ....
....|.5|--- .... ....|--- .... B..3|--- .... ....
....|.2|--- .... 117A|--- .... ....|--- .... ....
..1A|..|C-4 TCF. ....|--- .... ....|C-4 QFFE ....
....|..|--- .... ....|--- .... B..5|--- .... ....
....|..|A-3 RFF. ....|--- .... B..3|G#3 R..F ....
....|..|--- .... ....|--- .... ....|--- .... ....
....|..|C-4 S... ....|--- .... B..4|A#3 S... ....
....|..|--- .... ....|--- .... ....|--- .... ....
....|..|--- .... ....|--- .... B..3|--- .... ....
....|..|--- .... ....|--- .... ....|--- .... ....
..1A|..|C-4 TCF. ....|--- .... ....|C-4 Q..E ....
....|..|--- .... ....|--- .... B..5|--- .... ....
....|..|C-4 IFF. ....|--- .... B..3|C-4 K..F ....
..23|..|C-2 9... 6.20|--- .... ....|C-2 2CF. 6.20
....|..|C-4 I... ....|--- .... ....|C-4 KFF. ....
..23|..|C-2 9CF. ....|--- .... B..5|C-2 9... ....
....|..|--- .... ....|--- .... B..3|--- .... ....
....|..|--- .... ....|--- .... ....|--- .... ....
..1A|..|C-4 TCF. ....|A#8 E.F. ....|C-4 Q..E ....
....|..|--- .... ....|--- .... B..5|--- .... ....
....|..|A-3 RFF. ....|--- .... B..3|G#3 R..F ....
....|..|--- .... ....|--- .... ....|--- .... ....
...5|..|C-4 S... ....|C-6 MEF. B..4|A#3 S... ....
....|..|--- .... ....|R-- .... ....|--- .... ....
....|..|D#2 7F.. 4..1|F#6 .... ....|D#2 9... B..3
....|..|--- .... ....|R-- .... ....|--- .... ....
..1A|..|C-4 TCF. ....|C-7 .... ....|C-4 Q..E ....
....|..|--- .... ....|R-- .... B..5|--- .... ....
....|.F|C-4 IFF. ....|C-4 KFF. B..3|C-4 K..F ....
..27|.A|F-2 9... ....|F-5 P.7. ....|F-2 9CF. ....
....|.5|--- .... ....|--- .... ....|--- .... ....
....|.2|--- .... ....|--- .... B..5|--- .... ....
....|..|--- .... ....|--- .... B..3|--- .... ....
....|..|--- .... ....|--- .... ....|--- .... ....
....|.F|C-4 I... ....|C-4 K.F. ....|C-4 KFF. ....
..25|.A|F#2 9... ....|F#5 6.7. B..5|F#2 9CF. ....
....|..|A-3 R... ....|--- .... B..3|G#3 RFF. ....
....|..|--- .... ....|--- .... ....|--- .... ....
....|..|C-4 S... ....|--- .... B..4|A#3 SF.. ....
....|..|--- .... ....|--- .... ....|--- .... ....
..25|..|F#2 9... 6.60|--- .... B..3|F#2 9C.. 6.60
....|..|--- .... ....|--- .... ....|--- .... ....
..1A|..|C-4 TCF. ....|--- .... ....|C-4 QFF. ....
....|..|--- .... ....|--- .... B..5|--- .... ....
..2C|..|D#2 9FF. 6.60|--- .... B..3|D#2 9C.. 6.60
....|..|--- .... ....|--- .... ....|--- .... ....
....|..|C-4 K... ....|--- .... ....|A#3 KFF. ....
..27|..|F-2 9... ....|--- .... B..5|F-2 9C.. ....
....|..|--- .... ....|--- .... B..3|--- .... ....
....|..|--- ...A ....|--- .... ....|F-2 7F.A 4..1
..27|..|F-2 ...F ....|--- .... ....|F-2 9C.F ....
....|..|--- .... ....|--- .... B..5|--- .... ....
....|..|F#2 5... ....|--- .... B..3|A#3 O.F. ....
....|..|--- .... ....|--- .... ....|G-3 .... ....
..4E|..|C-4 SCF. ....|--- .... B..4|D#4 .... ....
....|..|--- .... ....|--- .... ....|--- .... ....
..58|..|C-4 KC.. ....|F#5 P... B..3|F-3 .... ....
....|..|--- .... ....|--- ...A ....|--- .... ....
....|..|C-4 SF.. ....|F-5 ...F ....|C-4 .... ....
....|..|--- .... ....|--- ...A B..5|--- .... ....
....|..|C-4 .... ....|D#5 ...F B..3|G-3 .... ....
....|..|--- .... ....|--- ...A ....|--- .... ....

[Pattern20]
....|.F|D#4 IFFF ....|D#5 UFEF B..3|C#4 KFFF ....
..1D|.A|D#2 9... ....|--- .... B..5|D#2 9CF. ....
....|.5|--- .... ....|--- .... B..3|--- .... ....
....|.2|--- .... 117A|--- .... ....|--- .... ....
..16|..|D#4 ACD. ....|--- .... 11.6|D#4 2FDE ....
....|..|--- .... ....|--- .... ....|--- .... B..5
....|..|A-3 RFF. ....|C#5 .... ....|G#3 R.FF B..3
....|..|--- .... ....|--- .... ....|--- .... ....
....|..|D#4 S... ....|D#5 .... ....|C#4 S... B..4
....|..|--- .... ....|--- .... ....|--- .... ....
....|..|--- .... ....|F#5 .... ....|--- .... B..3
....|..|--- .... ....|--- .... ....|--- .... ....
..16|..|D#4 ACD. ....|D#5 .... ....|D#4 2.DE ....
....|..|--- .... ....|C#5 2... B..5|--- .... ....
....|..|D#4 IFF. ....|D#5 U... B..3|D#4 K.FF ....
..1D|..|D#2 9... 6.20|--- .... ....|D#2 2CF. 6.20
....|..|D#4 I... ....|C#5 .... ....|D#4 KFF. ....
..1D|..|D#2 9CF. ....|--- .... B..5|D#2 9... ....
....|..|--- .... ....|A#4 .... B..3|--- .... ....
....|..|--- .... ....|--- .... ....|--- .... ....
..16|..|D#4 ACD. 6.43|A-4 .... 6.30|D#4 2.DE 6.43
....|..|--- .... ....|--- .... B..5|--- .... ....
....|..|--- .... ....|G#4 .... B..3|--- .... ....
....|..|--- .... ....|--- .... ....|--- .... ....
....|..|D#4 S... ....|F#4 .... B..4|C#4 S.FF ....
....|..|--- .... ....|--- .... ....|--- .... ....
....|..|--- .... ....|--- .... B..3|--- .... ....
....|..|--- .... ....|--- .... ....|--- .... ....
..16|..|D#4 ACF. ....|C#4 .... ....|D#4 2.DE ....
....|..|--- .... ....|--- .... B..5|--- .... ....
....|.F|D#4 IFF. ....|D#4 K.F. B..3|D#4 K..F ....
..21|.A|G#2 9... ....|G#5 P.7. ....|G#2 9CF. ....
....|.5|--- .... ....|--- .... ....|--- .... ....
....|.2|--- .... ....|--- .... B..5|--- .... ....
....|..|--- .... ....|--- .... B..3|--- .... ....
....|..|--- .... ....|--- .... ....|--- .... ....
....|.F|D#4 I... ....|D#4 K.F. ....|D#4 KFF. ....
..1F|.A|A-2 9... ....|A-5 6.7. B..5|A-2 9CF. ....
....|..|A-3 R... ....|--- .... B..3|G#3 RFF. ....
....|..|--- .... ....|--- .... ....|--- .... ....
....|..|D#4 S... ....|G#5 N.A. B..4|C#4 SF.. ....
....|..|--- .... ....|--- .... ....|--- .... ....
..1F|..|A-2 9... 6.60|A-5 .... B..3|A-2 9C.. 6.60
....|..|--- .... ....|--- .... ....|--- .... ....
..16|..|D#4 ACF. ....|--- .... ....|D#4 2FDE ....
....|..|--- .... ....|--- .... B..5|--- .... ....
..25|..|F#2 9FF. 6.60|C#6 .... B..3|F#2 9C.F 6.60
....|..|--- .... ....|--- .... ....|--- .... ....
....|..|D#4 K... ....|D#6 .... ....|C#4 KFF. ....
..21|..|G#2 9... ....|--- .... B..5|G#2 9C.. ....
....|..|F#2 .... ....|--- .... B..3|F#2 7F.. 4..1
....|..|--- .... ....|R-- .... ....|--- .... ....
....|..|D#2 .... ....|D#6 ...A ....|D#2 .... 4..1
....|..|--- .... ....|--- .... B..5|--- .... ....
....|..|D#4 K... ....|--- .... B..3|C#4 K.F. ....
....|..|F#2 9... ....|R-- .... ....|F#2 7... 4..1
....|..|D#2 .... ....|D#6 ...8 B..4|D#2 .... 4..1
....|..|--- .... ....|--- .... ....|--- .... ....
....|..|C-2 .F.. ....|--- .... B..3|C-2 .... 4..1
....|..|--- .... ....|R-- .... ....|--- .... ....
....|..|D#4 K... ....|D#6 ...6 ....|C#4 K... ....
....|..|D#2 4... 4..1|--- .... B..5|D#2 7... 4..1
....|..|--- .... ....|--- .... B..3|--- .... ....
....|..|--- .... ....|--- .... ....|--- .... ....

[Pattern21]
....|..|--- .... ....|D#5 NF74 B..3|--- .... ....
....|..|--- .... ....|--- ..7. B..5|--- .... ....
....|..|--- .... ....|--- ..71 B..3|--- .... ....
....|..|--- .... ....|--- ..7. ....|--- .... ....
....|..|--- .... ....|--- ..7. B..4|A-3 R..F 6.43
....|..|--- .... ....|--- ..7. ....|A-3 .... ....
....|..|--- .... ....|--- ..77 B..3|A-3 .... ....
....|..|--- .... ....|--- ..7. ....|--- .... ....
....|..|--- .... ....|--- ..72 ....|A-3 .... ....
....|..|--- .... ....|--- ..7. B..5|--- .... ....
....|..|--- .... ....|--- ..7. B..3|A-3 .... ....
....|..|--- .... ....|--- ..7. ....|--- .... ....
....|..|--- .... ....|--- ..79 ....|A-3 .... ....
....|..|--- .... ....|--- ..7. B..5|--- .... ....
....|..|--- .... ....|--- ..73 B..3|A-3 .... ....
....|..|--- .... ....|--- ..7. B..4|--- .... ....

[Pattern22]
..2C|..|D#5 NF7D ....|B-8 FCFF B..4|A-3 RFFF ....
....|..|--- ..7. ....|--- .... ....|--- .... ....
....|..|--- ..77 ....|--- .... B..3|A-3 ...A ....
....|..|--- ..7. ....|--- .... ....|--- .... ....
..25|..|--- ..7. ....|B-8 .CF. B..4|A-3 ...F ....
....|..|--- ..7. ....|--- .... ....|A-3 .... ....
..2C|..|--- ..7D ....|B-8 GCF. B..3|A-3 .... ....
....|..|--- ..7. ....|--- .... ....|--- .... ....
..21|..|--- ..77 ....|B-8 FCF. B..4|A-3 C... ....
....|..|--- ..7. ....|--- .... ....|--- .... ....
..25|..|--- ..7. ....|B-8 GCF. B..3|A-3 R... ....
....|..|--- ..7. ....|--- .... ....|--- .... ....
..1F|..|--- ..7D ....|B-8 FCF. B..4|A-3 .... ....
....|..|--- ..7. ....|--- .... ....|--- .... ....
..21|..|--- ..77 ....|B-8 GCF. B..3|A-3 .F.. ....
....|..|--- ..7. ....|--- .... ....|--- .... ....
..21|..|--- ..7D ....|B-8 FCF. B..4|A-3 .... ....
....|..|--- ..7. ....|--- .... ....|--- .... ....
..1F|..|--- ..77 ....|B-8 GCF. B..3|A-3 .... ....
....|..|--- ..7. ....|--- .... ....|--- .... ....
..25|..|--- ..7. ....|B-8 FCF. B..4|A-3 ...A ....
....|..|--- ..7. ....|--- .... ....|--- .... ....
..21|..|--- ..7D ....|B-8 GCF. B..3|A-3 ...F ....
....|..|--- ..7. ....|--- .... ....|--- .... ....
..2C|..|--- ..77 ....|B-8 FCF. B..4|A-3 C... ....
....|..|--- ..7. ....|--- .... ....|--- .... ....
..25|..|--- ..7. ....|B-8 GCF. B..3|A-3 R..A ....
....|..|--- ..7. ....|--- .... ....|--- .... ....
..31|..|--- ..7D ....|B-8 FCF. B..4|A-3 ...F ....
....|..|--- ..7. ....|--- .... ....|--- .... ....
..2C|..|--- ..77 ....|B-8 .CF. B..3|A-3 ...A ....
....|..|--- ..7. ....|--- .... ....|--- .... ....
..31|..|D#5 ...D ....|B-8 GCF. B..4|A-3 ..FF ....
....|..|--- ..7. ....|--- .... ....|--- .... ....
..2C|..|--- ..77 ....|B-8 FCF. B..3|A-3 ...A ....
....|..|--- ..7. ....|--- .... ....|--- .... ....
..25|..|--- ..7. ....|B-8 .CF. B..4|A-3 ...F ....
....|..|--- ..7. ....|--- .... ....|A-3 .... ....
..21|..|--- ..7D ....|B-8 .CF. B..3|A-3 .... ....
....|..|--- ..7. ....|--- .... ....|--- .... ....
..1F|..|--- ..77 ....|B-8 .CF. B..4|A-3 C... ....
....|..|--- ..7. ....|--- .... ....|--- .... ....
..25|..|--- ..7. ....|B-8 .CF. B..3|A-3 R... ....
....|..|--- ..7. ....|--- .... ....|--- .... ....
..1F|..|--- ..7D ....|B-8 GCF. B..4|A-3 .... ....
....|..|--- ..7. ....|--- .... ....|--- .... ....
..25|..|--- ..77 ....|B-8 .CF. B..3|A-3 .... ....
....|..|--- ..7. ....|--- .... ....|--- .... ....
..1F|..|G#5 ...D ....|B-8 FCF. B..4|A-3 .... ....
..21|..|--- ..7. ....|B-8 .CF. ....|--- .... ....
..1F|..|--- ..77 ....|B-8 .CF. B..3|A-3 .... ....
....|..|--- ..7. ....|--- .... ....|--- .... ....
..21|..|--- ..7. ....|B-8 .CF. B..4|A-3 ...A ....
....|..|--- ..7. ....|--- .... ....|--- .... ....
..25|..|--- ..7D ....|B-8 .CF. B..3|A-3 ...F ....
....|..|--- ..7. ....|--- .... ....|--- .... ....
..2C|..|--- ..77 ....|B-8 .CF. B..4|A-3 C... ....
....|..|--- ..7. ....|--- .... ....|--- .... ....
..31|..|--- ..7. ....|B-8 .CF. B..3|A-3 R..A ....
....|..|--- ..7. ....|--- .... ....|--- .... ....
..2C|..|--- ..7D ....|B-8 .CF. B..4|A-3 ...F ....
....|..|--- ..7. ....|--- .... ....|--- .... ....
..25|..|--- ..77 ....|B-8 .CF. B..3|A-3 ...A ....
....|..|--- ..7. ....|--- .... ....|--- .... ....

[Pattern23]
..2C|..|D#5 NF7D ....|B-8 FCFF B..4|A-3 RFFF ....
....|..|--- ..7. ....|--- .... ....|--- .... ....
....|..|--- ..77 ....|--- .... B..3|A-3 ...A ....
....|..|--- ..7. ....|--- .... ....|--- .... ....
..25|..|--- ..7. ....|B-8 .CF. B..4|A-3 ...F ....
....|..|--- ..7. ....|--- .... ....|A-3 .... ....
..2C|..|--- ..7D ....|B-8 GCF. B..3|A-3 .... ....
....|..|--- ..7. ....|--- .... ....|--- .... ....
..21|..|--- ..77 ....|B-8 FCF. B..4|A-3 C... ....
....|..|--- ..7. ....|--- .... ....|--- .... ....
..25|..|--- ..7. ....|B-8 GCF. B..3|A-3 R... ....
....|..|--- ..7. ....|--- .... ....|--- .... ....
..1F|..|--- ..7D ....|B-8 FCF. B..4|A-3 .... ....
....|..|--- ..7. ....|--- .... ....|--- .... ....
..21|..|--- ..77 ....|B-8 GCF. B..3|A-3 .F.. ....
....|..|--- ..7. ....|--- .... ....|--- .... ....
..21|..|--- ..7D ....|B-8 FCF. B..4|A-3 .... ....
....|..|--- ..7. ....|--- .... ....|--- .... ....
..1F|..|--- ..77 ....|B-8 GCF. B..3|A-3 .... ....
....|..|--- ..7. ....|--- .... ....|--- .... ....
..25|..|--- ..7. ....|B-8 FCF. B..4|A-3 ...A ....
....|..|--- ..7. ....|--- .... ....|--- .... ....
..21|..|--- ..7D ....|B-8 GCF. B..3|A-3 ...F ....
....|..|--- ..7. ....|--- .... ....|--- .... ....
..2C|..|--- ..77 ....|B-8 FCF. B..4|A-3 C... ....
....|..|--- ..7. ....|--- .... ....|--- .... ....
..25|..|--- ..7. ....|B-8 GCF. B..3|A-3 R..A ....
....|..|--- ..7. ....|--- .... ....|--- .... ....
..31|..|--- ..7D ....|B-8 FCF. B..4|A-3 ...F ....
....|..|--- ..7. ....|--- .... ....|--- .... ....
..2C|..|--- ..77 ....|B-8 .CF. B..3|A-3 ...A ....
....|..|--- ..7. ....|--- .... ....|--- .... ....
..31|..|D#5 ...D ....|B-8 GCF. B..4|A-3 ..FF ....
....|..|--- ..7. ....|--- .... ....|--- .... ....
..2C|..|--- ..77 ....|B-8 FCF. B..3|A-3 ...A ....
....|..|--- ..7. ....|--- .... ....|--- .... ....
..25|..|--- ..7. ....|B-8 .CF. B..4|A-3 ...F ....
....|..|--- ..7. ....|--- .... ....|A-3 .... ....
..21|..|--- ..7D ....|B-8 .CF. B..3|A-3 .... ....
....|..|--- ..7. ....|--- .... ....|--- .... ....
..1F|..|--- ..77 ....|B-8 .CF. B..4|A-3 C... ....
....|..|--- ..7. ....|--- .... ....|--- .... ....
..25|..|--- ..7. ....|B-8 .CF. B..3|A-3 R... ....
....|..|--- ..7. ....|--- .... ....|--- .... ....
..1F|..|--- ..7D ....|B-8 GCF. B..4|A-3 .... ....
....|..|--- ..7. ....|--- .... ....|--- .... ....
..25|..|--- ..77 ....|B-8 .CF. B..3|A-3 .... ....
....|..|--- ..7. ....|--- .... ....|--- .... ....
..1F|..|G#5 ...D ....|B-8 FCF. B..4|A-3 .... ....
..21|..|--- ..7. ....|B-8 .CF. ....|--- .... ....
..1F|..|--- ..77 ....|B-8 .CF. B..3|A-3 .... ....
....|..|--- ..7. ....|--- .... ....|--- .... ....
..21|..|--- ..7. ....|B-8 .CF. B..4|A-3 ...A ....
....|..|--- ..7. ....|--- .... ....|--- .... ....
..25|..|--- ..7D ....|B-8 .CF. B..3|A-3 ...F ....
....|..|--- ..7. ....|--- .... ....|--- .... ....
..2C|..|--- ..77 ....|B-8 .CF. B..4|A-3 C... ....
....|..|--- ..7. ....|--- .... ....|--- .... ....
....|..|--- ..7. ....|--- .... B..3|A-3 R..A ....
....|..|--- ..7. ....|--- .... 92.3|--- .... ....
....|..|--- ..7D ....|--- .... B..4|A-3 ...F ....
....|..|--- ..7. ....|--- .... ....|--- .... ....
....|..|--- ..77 ....|--- .... B..3|A-3 ...A ....
....|..|--- ..7. ....|--- .... ....|--- .... ....

[Pattern24]
..2C|..|C-4 KFFF ....|B-8 FCFF B..4|A-3 KFFF ....
....|..|D#5 N.7D ....|--- .... ....|D#3 2... ....
....|..|--- ..77 ....|--- .... B..3|--- .F.D ....
....|..|--- ..7. ....|--- .... ....|--- .... ....
..25|..|--- ..7. ....|B-8 .CF. B..4|F#3 4.FF ....
....|..|--- ..7. ....|--- .... ....|--- .... ....
..2C|..|--- ..7D ....|B-8 GCF. B..3|D#3 ...A ....
....|..|--- ..7. ....|--- .... ....|--- .... ....
..21|..|C-4 K.FF ....|B-8 FCF. B..4|A-3 K..F ....
....|..|D#5 N.77 ....|--- .... ....|G#3 2... ....
..25|..|--- ..7. ....|B-8 GCF. B..3|F#3 4..A ....
....|..|--- ..7. ....|--- .... ....|--- .... ....
..1F|..|--- ..7D ....|B-8 FCF. B..4|A-3 ...F ....
....|..|--- ..7. ....|--- .... ....|--- .... ....
..21|..|--- ..77 ....|B-8 GCF. B..3|G#3 ...A ....
....|..|--- ..7. ....|--- .... ....|--- .... ....
..21|..|C-4 K.FF ....|B-8 FCF. B..4|A-3 K..F ....
....|..|D#5 N.7D ....|--- .... ....|G#3 2... ....
..1F|..|--- ..77 ....|B-8 GCF. B..3|A-3 4..A ....
....|..|--- ..7. ....|--- .... ....|--- .... ....
..25|..|--- ..7. ....|B-8 FCF. B..4|F#3 ...F ....
....|..|--- ..7. ....|--- .... ....|--- .... ....
..21|..|--- ..7D ....|B-8 GCF. B..3|G#3 ...A ....
....|..|--- ..7. ....|--- .... ....|--- .... ....
..2C|..|C-4 K.FF ....|B-8 FCF. B..4|A-3 K..F ....
....|..|D#5 N.77 ....|--- .... ....|D#3 2... ....
..25|..|--- ..7. ....|B-8 GCF. B..3|F#3 4..A ....
....|..|--- ..7. ....|--- .... ....|--- .... ....
..31|..|C-4 K.FF ....|B-8 FCF. B..4|A-3 K..F ....
....|..|D#5 N.7D ....|--- .... ....|C#3 2... ....
..2C|..|--- ..77 ....|B-8 .CF. B..3|D#3 4... ....
....|..|--- ..7. ....|--- .... ....|--- .... ....
..31|..|C-4 K.FF ....|B-8 GCF. B..4|A-3 K... ....
....|..|D#5 N.7D ....|--- .... ....|C#3 2..A ....
..2C|..|--- ..77 ....|B-8 FCF. B..3|D#3 4..F ....
....|..|--- ..7. ....|--- .... ....|--- .... ....
..25|..|--- ..7. ....|B-8 .CF. B..4|F#3 .... ....
....|..|--- ..7. ....|--- .... ....|--- .... ....
..21|..|--- ..7D ....|B-8 .CF. B..3|G#3 .... ....
....|..|--- ..7. ....|--- .... ....|--- .... ....
..1F|..|C-4 K.FF ....|B-8 .CF. B..4|A-3 K... ....
....|..|D#5 N.77 ....|--- .... ....|A-3 2... ....
..25|..|--- ..7. ....|B-8 .CF. B..3|F#3 4... ....
....|..|--- ..7. ....|--- .... ....|--- .... ....
..1F|..|--- ..7D ....|B-8 GCF. B..4|A-3 ...A ....
....|..|--- ..7. ....|--- .... ....|--- .... ....
..25|..|--- ..77 ....|B-8 .CF. B..3|F#3 .... ....
....|..|--- ..7. ....|--- .... ....|--- .... ....
..1F|..|C-4 K.FF ....|B-8 FCF. B..4|A-3 K..F ....
..21|..|G#5 N.7D ....|B-8 .CF. ....|G#3 2... ....
..1F|..|--- ..77 ....|B-8 .CF. B..3|A-3 4... ....
....|..|--- ..7. ....|--- .... ....|--- .... ....
..21|..|--- ..7. ....|B-8 .CF. B..4|G#3 .... ....
....|..|--- ..7. ....|--- .... ....|--- .... ....
..25|..|--- ..7D ....|B-8 .CF. B..3|F#3 .... ....
....|..|--- ..7. ....|--- .... ....|--- .... ....
..2C|..|C-4 K.FF ....|B-8 .CF. B..4|A-3 K... ....
....|..|G#5 N.77 ....|--- .... ....|D#3 2... ....
..31|..|--- ..7. ....|B-8 .CF. B..3|C#3 4... ....
....|..|--- ..7. ....|--- .... ....|--- .... ....
..2C|..|C-4 K.FF ....|B-8 .CF. B..4|A-3 K... ....
....|..|G#5 N.7D ....|--- .... ....|D#3 2... ....
..25|..|--- ..77 ....|B-8 .CF. B..3|F#3 4... ....
....|..|--- ..7. ....|--- .... ....|--- .... ....

[Pattern25]
..2C|..|C-4 KFFF ....|B-8 FCFF B..4|A-3 KFFF ....
....|..|D#5 N.7D ....|--- .... ....|D#3 2... ....
....|..|--- ..77 ....|--- .... B..3|--- .F.D ....
....|..|--- ..7. ....|--- .... ....|--- .... ....
..25|..|--- ..7. ....|B-8 .CF. B..4|F#3 4.FF ....
....|..|--- ..7. ....|--- .... ....|--- .... ....
..2C|..|--- ..7D ....|B-8 GCF. B..3|D#3 ...A ....
....|..|--- ..7. ....|--- .... ....|--- .... ....
..21|..|C-4 K.FF ....|B-8 FCF. B..4|A-3 K..F ....
....|..|D#5 N.77 ....|--- .... ....|G#3 2... ....
..25|..|--- ..7. ....|B-8 GCF. B..3|F#3 4..A ....
....|..|--- ..7. ....|--- .... ....|--- .... ....
..1F|..|--- ..7D ....|B-8 FCF. B..4|A-3 ...F ....
....|..|--- ..7. ....|--- .... ....|--- .... ....
..21|..|--- ..77 ....|B-8 GCF. B..3|G#3 ...A ....
....|..|--- ..7. ....|--- .... ....|--- .... ....
..21|..|C-4 K.FF ....|B-8 FCF. B..4|A-3 K..F ....
....|..|D#5 N.7D ....|--- .... ....|G#3 2... ....
..1F|..|--- ..77 ....|B-8 GCF. B..3|A-3 4..A ....
....|..|--- ..7. ....|--- .... ....|--- .... ....
..25|..|--- ..7. ....|B-8 FCF. B..4|F#3 ...F ....
....|..|--- ..7. ....|--- .... ....|--- .... ....
..21|..|--- ..7D ....|B-8 GCF. B..3|G#3 ...A ....
....|..|--- ..7. ....|--- .... ....|--- .... ....
..2C|..|C-4 K.FF ....|B-8 FCF. B..4|A-3 K..F ....
....|..|D#5 N.77 ....|--- .... ....|D#3 2... ....
..25|..|--- ..7. ....|B-8 GCF. B..3|F#3 4..A ....
....|..|--- ..7. ....|--- .... ....|--- .... ....
..31|..|C-4 K.FF ....|B-8 FCF. B..4|A-3 K..F ....
....|..|D#5 N.7D ....|--- .... ....|C#3 2... ....
..2C|..|--- ..77 ....|B-8 .CF. B..3|D#3 4... ....
....|..|--- ..7. ....|--- .... ....|--- .... ....
..31|..|C-4 K.FF ....|B-8 GCF. B..4|A-3 K... ....
....|..|D#5 N.7D ....|--- .... ....|C#3 2..A ....
..2C|..|--- ..77 ....|B-8 FCF. B..3|D#3 4..F ....
....|..|--- ..7. ....|--- .... ....|--- .... ....
..25|..|--- ..7. ....|B-8 .CF. B..4|F#3 .... ....
....|..|--- ..7. ....|--- .... ....|--- .... ....
..21|..|--- ..7D ....|B-8 .CF. B..3|G#3 .... ....
....|..|--- ..7. ....|--- .... ....|--- .... ....
..1F|..|C-4 K.FF ....|B-8 .CF. B..4|A-3 K... ....
....|..|D#5 N.77 ....|--- .... ....|A-3 2... ....
..25|..|--- ..7. ....|B-8 .CF. B..3|F#3 4... ....
....|..|--- ..7. ....|--- .... ....|--- .... ....
..1F|..|--- ..7D ....|B-8 GCF. B..4|A-3 ...A ....
....|..|--- ..7. ....|--- .... ....|--- .... ....
..25|..|--- ..77 ....|B-8 .CF. B..3|F#3 .... ....
....|..|--- ..7. ....|--- .... ....|--- .... ....

[Pattern26]
....|..|G#5 N.7D ....|C-4 H.11 ....|G-6 MFFB ....
....|..|--- ..7. B..5|--- .... ....|--- .... ....
....|..|--- ..77 B..3|--- ...2 ....|--- .... ....
....|..|--- ..7. ....|--- ...3 ....|--- .... ....
....|..|--- ..7. ....|--- ...4 ....|G-6 ...C ....
....|..|--- ..7. B..5|--- ...5 ....|--- .... ....
....|..|--- ..7D B..3|--- ...6 ....|G-6 ...D ....
....|..|--- ..7. ....|--- ...7 ....|--- .... ....
....|..|--- ..77 B..4|--- ...8 ....|--- ...E ....
....|..|--- ..7. ....|--- ...9 ....|--- .... ....
....|..|--- ..7. B..3|--- ...A ....|--- .... ....
....|..|--- ..7. ....|--- ...B ....|--- .... ....
....|..|--- ..7D ....|--- ...C ....|G-6 ...F ....
....|..|--- ..7. B..5|--- ...D ....|--- .... ....
....|..|--- ..77 B..3|--- ...E ....|--- .... ....
....|..|--- ..7. ....|--- ...F ....|--- .... ....

[Pattern27]
....|.6|A#3 KFFF ....|C-5 6.7. B..3|C-4 KFFF ....
..23|.4|C-2 2CF. ....|--- .... B..5|C-4 6C7. ....
....|.3|--- .... ....|--- .... B..3|--- .... ....
....|.2|--- .... ....|--- .... ....|--- ..7. ....
..27|..|A#1 5C.. ....|--- .... ....|--- .... ....
....|..|--- .... ....|--- ...A B..5|--- ..7. 21.1
....|..|C-5 .F2C 6.30|--- .... B..3|C-5 7F2C 6.30
....|..|--- .... ....|D-4 2FFF 21.3|--- .... ....
....|..|C-4 S.FF ....|D#4 5.E. B..4|A#3 S.FF ....
....|..|--- .... ....|--- .... ....|--- .... ....
....|..|--- .... ....|F-4 .... B..3|--- .... ....
....|..|--- .... ....|--- .... ....|--- .... ....
..27|..|A#1 58F. ....|--- .... ....|A#1 2... ....
....|..|--- .... ....|--- .... ....|--- .... B..5
..23|..|C-2 .CF. ....|F#4 .... B..3|C-2 .... ....
....|..|--- .... ....|--- .... ....|--- .... ....
..68|..|C-4 KCF. ....|--- .... ....|A#3 K... ....
....|..|R-- .... ....|--- .... B..5|R-- .... ....
..23|..|G-2 2C.. ....|G-4 .... B..3|G-2 2F.. ....
....|..|--- .... ....|--- .... ....|--- .... ....
..1D|..|A#2 .C.. ....|F-4 .... 6.40|A#2 3... ....
....|..|R-- .... ....|--- .... ....|R-- .... B..5
....|..|C-5 5F7C 6.30|D#4 .... B..3|C-5 7.7C 6.30
....|..|--- .... ....|--- .... ....|--- .... ....
....|..|C-4 S.FF ....|F-4 .... ....|A#3 S.FF B..4
....|..|--- .... ....|--- .... ....|--- .... ....
..16|..|D#2 5C.. ....|D#4 .... ....|A#1 3F.. B..3
....|..|--- .... ....|--- .... ....|--- .... ....
....|..|F-2 7F.. ....|F-4 ...A ....|F-2 5.F. 6.30
....|..|--- .... ....|--- .... ....|--- .... B..5
....|..|F-1 .... ....|D#4 .... ....|F-1 .... B..3
....|..|--- .... ....|--- .... ....|--- .... ....

[Pattern28]
....|.6|A#3 KFFF ....|F-4 5FEF B..3|C-4 KFFF ....
..23|.4|D#2 8C.. ....|G-4 .... B..5|D#2 2F.. ....
....|.3|--- .... ....|F-4 .... B..3|--- .... ....
....|.2|--- .... ....|--- .... ....|--- .... ....
..23|..|C-2 58.. ....|C-5 .... 6.30|C-2 3... ....
....|..|--- .... ....|--- .... B..5|--- .... ....
....|..|C-5 .F1C 6.30|A#4 .... B..3|C-5 7.1C 6.30
....|..|--- .... ....|--- .... ....|--- .... ....
....|..|C-4 S.FF ....|G-4 .... B..4|A#3 S..F ....
....|..|--- .... ....|--- .... ....|--- .... ....
....|..|C-5 5.1C 6.30|D#4 .... B..3|C-5 7..C 6.30
....|..|--- .... ....|--- .... ....|--- .... ....
..27|..|A#2 .CFF ....|--- .... ....|A#1 3.FF ....
....|..|--- .... ....|--- .... B..5|--- .... ....
...D|..|C-2 .C.. ....|C-4 .... B..3|C-2 .F.. ....
....|..|--- .... ....|--- .... ....|--- .... ....
....|..|A#3 KFF. ....|--- .... 11.A|C-4 K.F. ....
....|..|--- .... ....|--- .... B..5|--- .... ....
..1A|..|F-2 58F. ....|D#4 .... B..3|F-2 3... ....
....|..|--- .... ....|--- .... ....|--- .... ....
..23|..|C-2 .8F. ....|A#4 .... ....|C-2 .... ....
....|..|--- .... ....|--- .... B..5|--- .... ....
..1D|..|A#1 .CF. ....|C-5 .... B..3|A#3 O... ....
....|..|--- .... ....|--- .... ....|G-3 .... ....
....|..|C-4 SFF. ....|--- .... B..4|A#3 S... ....
....|..|--- .... ....|--- .... 11.A|--- .... ....
....|..|G-2 5F.. ....|--- .... B..3|G-1 3F.. ....
....|..|--- .... ....|--- .... ....|--- .... ....
....|..|C-4 S... ....|C-5 ...A ....|A#3 S... ....
....|..|--- .... ....|--- .... B..5|--- .... ....
....|..|C-4 .... ....|--- .... B..3|A#3 .... ....
....|..|--- .... ....|--- .... ....|--- .... ....

[Pattern29]
....|..|A#3 KFFF ....|E-4 .FEF 21.3|C-4 SFFF B..3
..23|..|C-2 8CF. ....|F-4 ..F. 31.F|G-4 P.8. B..5
....|..|G-5 PF8A 5..1|--- .... ....|--- .... B..3
....|..|--- .... ....|--- ...A ....|--- ...E ....
..27|..|A#1 5C.. ....|F-4 ..EF ....|--- .... ....
....|..|--- .... ....|--- .... ....|--- ...D B..5
..1D|..|A#2 .C.. ....|F-4 .... ....|A#2 2F.F B..3
....|..|--- .... ....|--- .... ....|--- .... ....
....|..|C-4 SFFF ....|F-4 .... ....|A#3 S... B..4
....|..|--- .... ....|--- .... ....|--- .... ....
....|..|G-4 P.8C 6.10|--- .... ....|--- .... B..3
....|..|--- .... ....|--- ...A ....|--- .... ....
..27|..|A#1 58FF ....|F-4 ...F ....|A#1 2.F. ....
....|..|--- .... ....|--- .... ....|--- .... B..5
..23|..|G-1 8C.. ....|F-4 .... ....|G-1 .F.. B..3
....|..|--- .... ....|--- .... ....|--- .... ....
....|..|C-4 KFF. ....|F#4 ..9. ....|A#3 K.F. ....
....|..|R-- .... ....|--- .... B..5|R-- .... ....
..1C|..|G-2 5C.. ....|F-4 ..E. B..3|G-2 5F.. ....
....|..|--- .... ....|--- .... ....|--- .... ....
..2C|..|D#2 .C.. ....|D#4 .... ....|D#1 3... ....
....|..|--- .... ....|--- .... B..5|--- .... ....
..23|..|C-3 .8.. ....|C-4 .... B..3|C-2 5C.. ....
....|..|--- .... ....|--- .... ....|--- .... ....
..34|..|C-4 SCF. ....|D#4 .... ....|A#3 SFF. B..4
....|..|--- .... ....|--- .... ....|--- .... ....
..23|..|G-2 5C.. ....|F-4 .... B..3|G-2 3... ....
....|..|--- .... ....|--- .... ....|--- .... ....
..23|..|C-2 .8.. ....|--- .... ....|C-2 .... ....
....|..|R-- .... ....|--- ...A B..5|R-- .... ....
..27|..|F-2 .CF. ....|F#4 ...F B..3|F-2 .... ....
....|..|--- .... ....|F-4 .... ....|--- .... ....
..4A|..|C-4 KCF. ....|F#4 .... ....|A#3 K... ....
..23|..|C-2 8C.. ....|--- .... B..5|C-2 2F.. ....
....|..|C-5 5F7C 6.30|C-4 .... B..3|C-5 7.7C 6.30
....|..|--- .... ....|--- .... ....|--- .... ....
..27|..|A#1 .CFF ....|D#4 .... ....|A#1 3F.F ....
....|..|--- .... ....|--- .... ....|--- .... B..5
....|..|C-5 .F7C 6.30|A#3 .... B..3|C-5 7.7C 6.30
....|..|--- .... ....|--- .... ....|--- .... ....
....|..|C-4 S.FF ....|C-4 .... B..4|A#3 S.FF ....
....|..|--- .... ....|--- .... ....|--- .... ....
....|..|--- .... ....|G-3 .... B..3|--- .... ....
....|..|--- .... ....|--- .... ....|--- .... ....
..27|..|A#1 5C.. ....|A#3 .... ....|A#1 3F.. ....
....|..|--- .... ....|--- .... B..5|--- .... ....
..23|..|C-2 .C.. ....|F#3 .... B..3|C-2 .... ....
....|..|--- .... ....|--- .... ....|--- .... ....
....|..|C-4 KFF. ....|G-3 5... ....|A#3 K.F. ....
....|..|--- .... ....|--- .... B..5|--- .... ....
..27|..|F-1 5F.. ....|F-3 .... B..3|D#6 VC.. ....
....|..|--- .... ....|--- .... ....|--- .... ....
..23|..|C-2 .8.. ....|A#3 .... ....|C-2 .F.. ....
....|..|--- .... ....|--- .... B..5|--- .... ....
..3B|..|F-6 VC.. ....|C-4 .... B..3|A#3 O.F. ....
....|..|--- .... ....|--- .... ....|G-3 .... ....
....|..|C-4 2FF. 1160|A#3 .... B..4|D#4 .... ....
....|..|--- .... ....|--- .... ....|--- .... ....
....|..|--- .... ....|F#3 .... B..3|F-3 .... ....
....|..|--- .... ....|--- .... ....|--- .... ....
....|..|C-4 .... 1160|F-3 9... ....|C-4 .... ....
....|..|--- .... ....|--- .... B..5|--- .... ....
....|..|C-4 .... 1160|D#3 5... B..3|G-3 .... ....
....|..|--- .... ....|--- .... ....|--- .... ....

[Pattern30]
....|.6|A#3 KFFF ....|C-3 5... B..3|C-4 KFFF ....
..23|.4|C-2 2CF. ....|--- .... B..5|C-4 6C7. ....
....|.3|--- .... ....|--- .... B..3|--- .... ....
....|.2|--- .... ....|--- ...6 ....|--- ..7. ....
..27|..|A#1 5C.. ....|C-3 ...A ....|--- .... ....
....|..|--- .... ....|--- .... B..5|--- ..7. 21.1
....|..|C-5 .F2C 6.30|--- .... B..3|C-5 7F2C 6.30
....|..|--- .... ....|--- ...3 ....|--- .... ....
....|..|C-4 S.FF ....|C-3 ...8 ....|A#3 S.FF B..4
....|..|--- .... ....|--- .... ....|--- .... ....
....|..|--- .... ....|--- .... ....|--- .... B..3
....|..|--- .... ....|--- ...2 ....|--- .... ....
..27|..|A#1 58F. ....|C-5 ..FF ....|A#1 2... ....
....|..|--- .... ....|--- .... ....|--- .... B..5
..23|..|C-2 .CF. ....|--- ...A B..3|C-2 .... ....
....|..|--- .... ....|--- .... ....|--- .... ....
..68|..|C-4 KCF. ....|F-5 ...F ....|A#3 K... ....
....|..|R-- .... ....|--- .... B..5|R-- .... ....
..23|..|G-2 2C.. ....|--- ...A B..3|G-2 2F.. ....
....|..|--- .... ....|--- .... ....|--- .... ....
..1D|..|A#2 .C.. ....|D#5 ...F 6.40|A#2 3... ....
....|..|R-- .... ....|--- .... ....|R-- .... B..5
....|..|C-5 5F7C 6.30|D#5 .... B..3|C-5 7.7C 6.30
....|..|--- .... ....|--- .... ....|--- .... ....
....|..|C-4 S.FF ....|G-5 .... 311F|A#3 S.FF B..4
....|..|--- .... ....|--- .... 6.30|--- .... ....
..16|..|D#2 5C.. ....|D#5 .... ....|A#1 3F.. B..3
....|..|--- .... ....|--- .... ....|--- .... ....
....|..|C-5 .F7C 6.30|--- ...A ....|C-5 7.7C 6.30
....|..|--- .... ....|--- .... ....|--- .... B..5
..27|..|F-2 .CFF ....|C-5 ...F ....|F-2 ..FF B..3
....|..|--- .... ....|--- .... ....|--- .... ....

[Pattern31]
....|.6|A#3 KFFF ....|C-5 ...F B..3|C-4 KFFF ....
..23|.4|D#2 8C.. ....|--- .... B..5|D#2 2F.. ....
....|.3|--- .... ....|--- .... B..3|--- .... ....
....|.2|--- .... ....|--- .... 11.C|--- .... ....
..23|..|C-2 58.. ....|--- ...A ....|C-2 3... ....
....|..|--- .... ....|--- .... ....|--- .... B..5
....|..|C-5 .F1C 6.30|C-5 ...F B..3|C-5 7.1C 6.30
....|..|--- .... ....|--- .... ....|--- .... ....
....|..|C-4 S.FF ....|G-5 5.F. ....|A#3 S..F B..4
....|..|--- .... ....|--- .... 11.A|--- .... ....
....|..|C-5 5.1C 6.30|A#5 .... B..3|C-5 7..C 6.30
....|..|--- .... ....|--- .... ....|--- .... ....
..27|..|A#2 .CFF ....|--- .... ....|A#1 3.FF ....
....|..|--- .... ....|--- ...A 11.A|--- .... B..5
...D|..|C-2 .C.. ....|F#5 ...F B..3|C-2 .F.. ....
....|..|--- .... ....|--- .... ....|--- .... ....
....|..|A#3 KFF. ....|--- .... ....|C-4 K.F. ....
....|..|--- .... ....|--- .... B..5|--- .... ....
..1A|..|F-2 58F. ....|F-5 .... B..3|F-2 3... ....
....|..|--- .... ....|--- .... ....|--- .... ....
..23|..|C-2 .8F. ....|--- ...A ....|C-2 .... ....
....|..|--- .... ....|--- .... B..5|--- .... ....
..1D|..|A#1 .CF. ....|D#5 ...F B..3|A#3 O... ....
....|..|--- .... ....|--- .... ....|G-3 .... ....
....|..|C-4 SFF. ....|C-5 .... B..4|A#3 S... ....
....|..|--- .... ....|--- .... ....|--- .... ....
..1C|..|G-2 5C.. ....|--- .... B..3|G-1 3F.. ....
....|..|--- .... ....|--- .... ....|--- .... ....
....|..|C-4 S... ....|A#4 .... ....|A#3 S... ....
....|..|--- .... ....|--- .... B..5|--- .... ....
....|..|C-4 .... ....|C-5 .... B..3|A#3 .... ....
....|..|--- .... ....|--- .... ....|--- .... ....

[Pattern32]
....|..|A#3 KFFF ....|--- .... ....|C-4 SFFF B..3
..23|..|C-2 8CF. ....|--- .... 11.D|G-4 P.8. B..5
....|..|G-5 PF8A 5..1|--- ...A ....|--- .... B..3
....|..|--- .... ....|--- .... ....|--- ...E ....
..27|..|A#1 5C.. ....|F-4 ..EF ....|--- .... ....
....|..|--- .... ....|--- .... ....|--- ...D B..5
..1D|..|A#2 .C.. ....|D#4 .... ....|A#2 2F.F B..3
....|..|--- .... ....|--- .... ....|--- .... ....
....|..|C-4 SFFF ....|C-4 .... 6.20|A#3 S... B..4
....|..|--- .... ....|--- ...A ....|--- .... ....
....|..|G-4 P.8C 6.10|A#3 ...F ....|--- .... B..3
....|..|--- .... ....|--- .... ....|--- .... ....
..27|..|A#1 58FF ....|--- .... ....|A#1 2.F. ....
....|..|--- .... ....|--- .... ....|--- .... B..5
..23|..|G-1 8C.. ....|C-4 .... ....|G-1 .F.. B..3
....|..|--- .... ....|--- .... ....|--- .... ....
....|..|C-4 KFF. ....|--- .... ....|A#3 K.F. ....
....|..|R-- .... ....|--- .... B..5|R-- .... ....
..1C|..|G-2 5C.. ....|A#3 .... B..3|G-2 5F.. ....
....|..|--- .... ....|--- .... ....|--- .... ....
..2C|..|D#2 .C.. ....|F#3 .... ....|D#1 3... ....
....|..|--- .... ....|--- .... B..5|--- .... ....
..23|..|C-3 .8.. ....|F-3 .... B..3|C-2 5C.. ....
....|..|--- .... ....|--- .... ....|--- .... ....
..34|..|C-4 SCF. ....|F#3 .... 6.30|A#3 SFF. B..4
....|..|--- .... ....|--- .... ....|--- .... ....
..23|..|G-2 5C.. ....|F-3 .... B..3|G-2 3... ....
....|..|--- .... ....|--- .... ....|--- .... ....
..23|..|C-2 .8.. ....|D#3 .... ....|C-2 .... ....
....|..|R-- .... ....|--- .... B..5|R-- .... ....
..27|..|F-2 .CF. ....|A#2 .... B..3|F-2 .... ....
....|..|--- .... ....|--- .... ....|--- .... ....
..4A|..|C-4 KCF. ....|F#3 .... ....|A#3 KCF. ....
....|..|--- .... ....|--- .... B..5|F#2 2FF. ....
....|..|--- .... ....|--- .... B..3|--- .... ....
....|..|R-- .... ....|--- .... ....|R-- .... ....
..4E|..|C-4 .C.. ....|F-3 .... ....|A#3 KC.. ....
....|..|--- .... ....|--- .... ....|F-2 2FF. ....
....|..|--- .... ....|--- .... B..3|--- .... ....
....|..|R-- .... ....|--- .... ....|R-- .... ....
..58|..|C-4 .C.. ....|D#3 .... B..4|A#3 .C.. ....
....|..|R-- .... ....|--- .... ....|D#2 .FF. 6.30
..68|..|C-4 .C.. ....|C-3 .... B..3|A#3 .C.. ....
....|..|R-- .... ....|--- .... ....|C-2 .FF. 6.30
..75|..|C-4 .C.. ....|A#2 .... ....|A#3 .C.. ....
....|..|--- .... ....|--- .... B..5|A#1 .FF. ....
....|..|--- .... ....|--- .... B..3|--- .... ....
....|..|R-- .... ....|--- .... ....|R-- .... ....
..68|..|C-4 .C.. ....|C-3 1... 31.7|A#3 .C.. ....
....|..|C-2 7FF. 4..1|--- .... B..5|C-2 .FF. ....
....|..|--- .... ....|--- .... B..3|--- .... ....
....|..|--- .... ....|--- .... ....|--- .... ....
....|..|--- .... ....|--- .... ....|--- .... ....
....|..|--- .... ....|--- .... B..5|--- .... ....
....|..|--- .... ....|--- .... B..3|--- .... ....
....|..|--- .... ....|--- .... ....|--- .... ....
....|..|--- .... 21.3|--- .... B..4|--- .... 21.3
....|..|--- .... ....|--- .... ....|--- .... ....
....|..|--- .... ....|--- .... B..3|--- .... ....
....|..|--- .... ....|--- .... ....|--- .... ....
....|..|--- .... ....|--- .... ....|--- .... ....
....|..|--- .... ....|--- .... B..5|--- .... ....
....|..|--- .... ....|--- .... B..3|--- .... ....
....|..|--- .... ....|--- .... ....|--- .... ....

[Pattern33]
....|..|--- .... ....|--- .... ....|--- .... ....
....|..|--- .... ....|--- .... B..5|--- .... ....
....|..|--- .... 21.C|--- .... B..3|--- .... 21.C
....|..|--- .... ....|--- .... 21.D|--- .... ....
....|..|--- .... ....|--- .... ....|--- .... ....
....|..|--- .... ....|--- .... B..5|--- .... ....
....|..|--- .... ....|--- .... B..3|--- .... ....
....|..|--- .... ....|--- .... ....|--- .... ....
....|..|--- .... ....|--- .... B..4|--- .... ....
....|..|--- .... ....|--- .... ....|--- .... ....
....|..|--- .... 2123|--- .... B..3|--- .... 2123
....|..|--- .... ....|--- .... ....|--- .... ....
....|..|--- .... 2133|--- .... ....|--- .... 2133
....|..|--- .... ....|--- .... B..5|--- .... ....
....|..|--- .... 2145|--- .... B..3|--- .... 2145
....|..|--- .... ....|--- .... ....|--- .... ....

[Pattern34]
....|.8|C-4 SFFF ....|C-3 4..F 4..1|A#3 SFFF B..3
....|.6|C-5 6.7E ....|--- .... ....|C-4 6.7E ....
....|.6|--- .... ....|--- .... ....|--- .... ....
....|.6|--- .... ....|--- .... ....|--- .... ....
....|.5|--- .... ....|--- ...1 ....|--- .... ....
....|.4|--- .... ....|C-3 ...A 4..1|--- .... ....
....|.4|--- .... ....|--- .... ....|--- .... ....
....|.3|--- .... ....|--- .... ....|--- .... ....
....|.3|--- .... ....|--- .... ....|--- .... ....
....|.2|--- .... ....|--- ...1 ....|--- .... ....
....|.2|--- .... ....|C-3 ...7 4..1|--- .... ....
....|.1|--- .... ....|--- .... ....|--- .... ....
....|.1|--- .... ....|--- .... ....|--- .... ....
....|.1|--- .... ....|--- .... ....|--- .... ....
....|.1|--- .... ....|--- ...1 ....|--- .... ....
....|..|--- .... ....|C-3 ...6 4..1|--- .... ....
....|..|--- .... ....|--- .... ....|--- .... ....
....|..|--- .... ....|--- .... ....|--- .... ....
....|..|--- .... ....|--- .... ....|--- .... ....
....|..|--- .... ....|--- ...1 ....|--- .... ....
....|..|--- .... ....|C-3 ...3 4..1|--- .... ....
....|..|--- .... ....|--- .... ....|--- .... ....
....|..|--- .... ....|--- .... ....|--- .... ....
....|..|--- .... ....|--- .... ....|--- .... ....
....|..|--- .... ....|R-- .... ....|--- .... ....
....|..|--- .... ....|--- .... ....|--- .... ....
....|..|--- .... ....|--- .... ....|--- .... ....
....|..|--- .... ....|--- .... ....|--- .... ....
....|..|--- .... ....|--- .... ....|--- .... ....
....|..|--- .... ....|--- .... ....|--- .... ....

[Pattern35]
....|.F|A#3 KFFF B..3|F-4 6.7F ....|C-4 KFFF ....
....|.A|F-1 9... B..5|--- .... ....|F-5 N.7. 5..2
....|.5|--- .... B..3|--- ...E ....|--- .... ....
....|.2|--- .... 117A|--- ...D ....|--- ...E ....
..12|..|F-2 .... ....|F-5 U.FF ....|F-5 5E1F ....
....|..|--- .... ....|--- ...A B..5|--- .... 21.D
....|..|F-5 5.6C ....|F-5 ...F B..3|G#3 RFF. ....
....|..|--- .... ....|--- ...A ....|--- .... ....
....|..|C-4 S.FF ....|C-5 ...F B..4|A#3 S... ....
....|..|--- .... ....|--- .... ....|--- .... ....
....|..|--- .... ....|D#5 .... B..3|--- .... ....
....|..|--- .... ....|--- .... ....|--- .... ....
..12|..|F-5 5E1. ....|F-5 N.CE 6.40|A#1 9... ....
....|..|--- .... 21.D|--- .... B..5|--- .... ....
....|..|C-2 9FF. ....|F#5 UFFF B..3|C-4 K... ....
..27|..|--- .... 6.20|--- .... ....|F-1 2CF. 6.20
....|..|C-4 K... ....|F-5 .... ....|A#3 KFF. ....
..27|..|R-- .... B..5|--- .... ....|F-1 9CF. ....
....|..|G-2 9.B. B..3|--- ...A ....|--- .... ....
....|..|--- .... ....|--- .... ....|--- .... ....
....|..|A#2 ..F. 6.50|D#5 ...F ....|F-3 7F7B ....
....|..|--- .... B..5|--- .... ....|--- .... ....
....|..|F-4 5.7C B..3|C-5 .... ....|C-3 9.BF ....
....|..|--- .... ....|--- .... ....|--- .... ....
....|..|C-4 S.FF ....|F-5 N.CE 6.40|A#3 S.F. B..4
....|..|--- .... ....|--- .... ....|--- .... ....
..1D|..|D#3 5CF. B..3|A#4 U.FF ....|C-3 9.B. ....
....|..|--- .... ....|--- .... ....|--- .... ....
....|..|F-4 .F7C ....|C-5 .... ....|D#3 .... ....
....|..|--- .... B..5|--- .... 11.A|--- .... ....
..27|..|F-3 ..BF B..3|D#5 .... ....|F-2 .CF. ....
....|..|--- .... ....|--- .... ....|--- .... ....
....|..|C-4 K.F. ....|C-5 .... 31.8|A#3 KFF. ....
..23|..|C-1 9... B..5|--- .... ....|C-1 9CF. ....
....|..|--- .... B..3|--- .... ....|--- .... ....
....|..|--- .... ....|--- .... 11.A|--- .... ....
..12|..|C-2 .F.. ....|F#6 N... ....|C-5 5E1E ....
....|..|--- .... B..5|--- .... ....|--- .... 21.D
....|..|C-4 5.6C B..3|F-6 .... ....|G#3 R.FF ....
....|..|--- .... ....|F#6 ...A ....|--- .... ....
....|..|C-4 S.FF B..4|D#6 ...F ....|A#3 S... ....
....|..|--- .... ....|F-6 ...A ....|--- .... ....
....|..|--- .... B..3|F-6 ...F ....|--- .... ....
....|..|--- .... ....|D#6 ...A ....|--- .... ....
..12|..|C-5 5E1. ....|D#6 ...F ....|C-1 9... ....
....|..|--- .... 21.D|F-6 ...A ....|--- .... B..5
....|..|C-2 9FF. B..3|C-6 ...F ....|C-4 K... ....
..34|..|--- .... ....|D#6 ...A ....|C-1 2CF. ....
....|..|C-4 K... ....|A#5 ...F ....|A#3 KFF. ....
..34|..|R-- .... B..5|C-6 ...A ....|C-1 9CF. ....
....|..|G-2 9.B. B..3|F#5 ...F ....|--- .... ....
....|..|--- .... ....|G-5 ...A ....|--- .... ....
....|..|A#2 ..F. ....|F-5 ...F ....|F-3 7F7B ....
....|..|--- .... B..5|F#5 ...A ....|--- .... ....
....|..|C-4 5.7C B..3|D#5 ...F ....|C-3 9.BF ....
....|..|--- .... ....|F-5 ...A ....|--- .... ....
....|..|C-4 S.FF B..4|F-5 ...F ....|A#3 S.F. ....
....|..|--- .... ....|D#5 ...A ....|--- .... ....
..34|..|C-2 5CF. B..3|D#5 ...F ....|C-3 9.B. ....
....|..|--- .... ....|F-5 ...A ....|--- .... ....
....|..|C-4 .F7C ....|C-5 ...F ....|C-1 ..F. ....
....|..|--- .... B..5|D#5 ...A ....|--- .... ....
..27|..|A#2 9.BF B..3|A#4 ...F ....|F-2 .CF. ....
....|..|--- .... ....|C-5 ...A ....|--- .... ....

[Pattern36]
....|.F|C-4 KFFF B..3|C-5 ...F ....|A#3 KFFF ....
..4E|.A|F-1 9... B..5|--- .... ....|F-1 9CF. ....
....|.5|--- .... B..3|--- ...A ....|--- .... ....
....|.2|--- .... 117A|--- .... ....|--- .... ....
..12|..|F-2 .F.. ....|C-4 U.AF ....|F-5 5E1. ....
....|..|--- .... ....|--- .... B..5|--- .... 21.D
....|..|F-5 5.6C ....|--- ...A B..3|G#3 RFF. ....
....|..|--- .... ....|--- .... ....|--- .... ....
....|..|C-4 S.FF ....|C-4 ...F B..4|A#3 S... ....
....|..|--- .... ....|--- .... ....|--- .... ....
....|..|--- .... ....|A-3 R.FE B..3|--- .... ....
....|..|--- .... ....|--- .... ....|--- .... ....
..12|..|F-5 5E1. ....|D#4 U.AF ....|A#1 9... ....
....|..|--- .... 21.D|--- .... B..5|--- .... ....
....|..|C-2 9FF. ....|C-4 .... B..3|A#3 K... ....
..27|..|--- .... 6.20|--- .... ....|F-1 2CF. 6.20
....|..|C-4 K... ....|G-4 .... ....|A#3 KFF. ....
..27|..|R-- .... B..5|F#4 2... ....|F-1 9CF. ....
....|..|G-2 9.B. B..3|F-4 U... ....|--- .... ....
....|..|--- .... ....|--- .... ....|--- .... ....
....|..|A#2 ..F. 6.50|F#4 .... ....|F-3 7F7B ....
....|..|--- .... B..5|F-4 2... ....|--- .... ....
....|..|F-4 5.7C B..3|D#4 U... ....|C-3 9.BF ....
....|..|--- .... ....|--- .... ....|--- .... ....
....|..|C-4 S.FF ....|F-4 .... ....|A#3 S.F. B..4
....|..|--- .... ....|D#4 2... ....|--- .... ....
..1D|..|D#3 5CF. B..3|C-4 U... ....|C-3 9.B. ....
....|..|--- .... ....|--- .... ....|--- .... ....
....|..|F-4 .F7C ....|D#4 .... ....|D#3 .... ....
....|..|--- .... B..5|C-4 2... ....|--- .... ....
..27|..|F-3 ..BF B..3|A#3 U... ....|F-2 .CF. ....
....|..|--- .... ....|--- .... ....|--- .... ....
....|..|A#3 K.F. ....|C-4 1... 31.A|C-4 KFF. ....
..23|..|C-1 9... B..5|--- .... ....|C-1 9CF. ....
....|..|--- .... B..3|--- .... ....|--- .... ....
....|..|--- .... ....|--- .... ....|--- .... ....
..12|..|C-2 .F.. ....|F#6 NFF. ....|C-5 5A1. ....
....|..|--- .... B..5|--- .... ....|--- .... 21.D
....|.F|C-4 5.6C B..3|F-6 .... ....|G#3 RFF. ....
....|..|--- .... ....|F#6 ...A ....|--- .... ....
....|..|C-4 S.FF B..4|D#6 ...F ....|A#3 S... ....
....|..|--- .... ....|F-6 ...A ....|--- .... ....
....|..|--- .... B..3|F-6 ...F ....|--- .... ....
....|..|--- .... ....|D#6 ...A ....|--- .... ....
..12|..|C-5 5E1. ....|D#6 ...F ....|C-1 9... ....
....|..|--- .... 21.D|F-6 ...A ....|--- .... B..5
....|..|C-2 9FF. B..3|C-6 ...F ....|A#3 K... ....
..34|..|--- .... ....|D#6 ...A ....|C-1 2CF. ....
....|..|A#3 K... ....|A#5 ...F ....|C-4 KFF. ....
..34|..|R-- .... B..5|C-6 ...A ....|C-1 9CF. ....
....|..|G-2 9.B. B..3|F#5 ...F ....|--- .... ....
....|..|--- .... ....|G-5 ...A ....|--- .... ....
....|..|A#2 ..F. ....|D#6 ...F ....|F-3 7F7B ....
....|..|--- .... B..5|--- .... 11.A|--- .... ....
....|..|C-4 5.7C B..3|C-6 .... ....|C-3 9.BF ....
....|..|--- .... ....|--- .... ....|--- .... ....
....|..|C-4 S.FF B..4|--- ...C ....|A#3 S.F. ....
....|..|--- .... ....|--- .... ....|--- .... ....
..34|..|C-2 5CF. B..3|A#5 ...F ....|C-3 9.B. ....
....|..|--- .... ....|C-6 ...A ....|--- .... ....
....|..|C-4 SFF. ....|C-6 ...F ....|A#3 S.F. ....
....|..|--- .... B..5|A#5 ...A ....|--- .... ....
....|..|C-4 .... B..3|D#6 ...F ....|A#3 .... ....
....|..|--- .... ....|C-6 ...A ....|--- .... ....

[Pattern37]
....|.F|A#3 KFFF B..3|C-5 ...F ....|C-4 KFFF ....
..4E|.A|F-1 9... B..5|--- .... ....|F-1 9CF. 5..2
....|.5|--- .... B..3|--- ...A ....|--- .... ....
....|.2|--- .... 117A|--- .... 11.1|--- .... ....
..12|..|F-2 .F.. ....|C-4 U.AF ....|F-5 5E1. ....
....|..|--- .... ....|--- .... B..5|--- .... 21.D
....|..|F-4 5.6C ....|--- ...A B..3|G#3 RFF. ....
....|..|--- .... ....|--- .... ....|--- .... ....
....|..|C-4 S.FF ....|C-4 ...F B..4|A#3 S... ....
....|..|--- .... ....|--- .... ....|--- .... ....
....|..|--- .... ....|A-3 R.FE B..3|--- .... ....
....|..|--- .... ....|--- .... ....|--- .... ....
..12|..|F-5 5E1. ....|D#4 U.AF ....|A#1 9... ....
....|..|--- .... 21.D|--- .... B..5|--- .... ....
....|..|C-2 9FF. ....|C-4 .... B..3|C-4 K... ....
..27|..|--- .... 6.20|--- .... ....|F-1 2CF. 6.20
....|..|C-4 K... ....|G-4 .... ....|A#3 KFF. ....
..27|..|R-- .... B..5|F#4 2... ....|F-1 9CF. ....
....|..|G-2 9.B. B..3|F-4 U... ....|--- .... ....
....|..|--- .... ....|--- .... ....|--- .... ....
....|..|A#2 ..F. 6.50|F#4 .... ....|F-3 7F7B ....
....|..|--- .... B..5|F-4 2... ....|--- .... ....
....|..|F-4 5.7C B..3|D#4 U... ....|C-3 9.BF ....
....|..|--- .... ....|--- .... ....|--- .... ....
....|..|C-4 S.FF ....|F-4 .... B..4|A#3 S.F. ....
....|..|--- .... ....|D#4 2... ....|--- .... ....
..1D|..|D#3 5CF. B..3|C-4 U... ....|C-3 9.B. ....
....|..|--- .... ....|--- .... ....|--- .... ....
....|..|F-4 .F7C ....|D#4 .... ....|D#3 .... ....
....|..|--- .... B..5|C-4 2... ....|--- .... ....
..27|..|F-3 ..BF B..3|A#3 U... ....|F-2 .CF. ....
....|..|--- .... ....|--- .... ....|--- .... ....
....|..|A#3 K.F. ....|C-4 .... ....|C-4 KFF. ....
..23|..|G-2 2F.. B..5|A#3 2... ....|G-2 9CF. ....
....|..|--- .... B..3|C-4 U... ....|--- .... ....
....|..|R-- .... ....|--- .... ....|R-- .... ....
....|..|A#3 K.F. ....|D#4 .... ....|C-4 KFF. ....
..23|..|G-2 2F.. B..5|C-4 2... ....|G-2 9CF. ....
....|..|--- .... B..3|D#4 U... ....|--- .... ....
....|..|R-- .... ....|--- .... ....|R-- .... ....
....|..|A#3 K.F. B..4|F-4 .... ....|C-4 KFF. ....
..25|..|F#2 2F.. ....|D#4 2... ....|F#2 9CF. ....
....|..|--- .... B..3|F-4 U... ....|--- .... ....
....|..|R-- .... ....|--- .... ....|R-- .... ....
....|..|A#3 K.F. ....|F#4 .... ....|C-4 KFF. ....
..25|..|F#2 2F.. B..5|F-4 2... ....|F#2 9CF. ....
....|..|--- .... B..3|F#4 U... ....|--- .... ....
....|..|--- .... ....|--- .... ....|--- .... ....
....|..|A#3 K.F. ....|G-4 .... ....|C-4 KFF. ....
..34|..|F-2 4F.. 4..1|F#4 2... B..5|C-4 3C.. 911F
....|..|--- .... B..3|G-4 U... ....|--- .... ....
....|..|--- .... ....|--- .... ....|--- .... ....
....|..|--- .... ....|C-5 .... ....|--- .... ....
....|..|--- .... B..5|--- .... ....|--- .... ....
....|..|C-4 S... B..3|A#4 .... ....|--- .... ....
....|..|--- .... ....|C-5 2..A ....|--- .... ....
....|..|--- .... B..4|C-5 U..F ....|C-4 S... ....
....|..|--- .... ....|A#4 2..A ....|--- .... ....
....|..|C-4 .... B..3|A#4 U..F ....|--- .... ....
....|..|--- .... ....|C-5 2..A ....|--- .... ....
....|..|--- .... ....|G-4 U..F ....|C-4 .... ....
....|..|--- .... B..5|--- .... ....|--- .... ....
....|..|C-4 .... B..3|F#4 .... ....|--- .... ....
....|..|--- .... ....|G-4 ...A ....|--- .... ....

[Pattern38]
....|..|--- .... ....|--- .... ....|--- .... B..4
....|..|--- .... ....|--- .... ....|--- .... B..2
....|..|--- .... ....|--- .... ....|--- .... B..1
....|..|--- .... ....|--- .... ....|--- .... B..6
....|..|--- .... ....|--- .... ....|--- .... B..2

[Pattern39]
....|.F|--- .... ....|C-5 U..F 31.F|C-4 KFFF B..3
....|.A|--- .... ....|--- .... B..5|C-5 6.7. ....
....|.5|--- .... ....|--- .... B..3|--- .... ....
....|.2|--- .... ....|--- .... ....|--- .... ....
....|..|--- .... ....|A#4 ...A ....|--- .... ....
....|..|--- .... ....|--- .... B..5|--- .... ....
....|..|--- .... ....|C-5 .... B..3|--- .... ....
....|..|--- .... ....|--- .... ....|--- .... ....
....|..|--- .... ....|--- .... B..4|--- .... ....
....|..|--- .... ....|--- .... ....|--- .... ....
....|..|--- .... ....|A#4 ...8 B..3|--- .... ....
....|..|--- .... ....|--- .... ....|--- .... ....
....|..|--- .... ....|C-5 .... ....|--- .... ....
....|..|--- .... ....|--- .... B..5|--- .... ....
....|..|C-4 IFFF ....|--- .... B..3|A#3 KF.. ....
....|..|--- .... ....|--- .... ....|--- .... ....
....|..|--- .... ....|A#4 ...6 ....|--- .... ....
....|..|--- .... ....|--- .... B..5|--- .... ....
....|..|C-4 .... ....|C-5 .... B..3|A#3 .... ....
....|..|--- .... ....|--- .... ....|--- .... ....
....|..|C-4 S... ....|A#8 E.FF ....|A#3 S... ....
....|..|--- .... ....|--- .... B..5|--- .... ....
....|..|C-4 K... ....|--- .... B..3|A#3 K... ....
....|..|--- .... ....|--- .... ....|--- .... ....
...5|..|C-4 S... ....|C-6 MEF. B..4|A#3 S... ....
....|..|--- .... ....|R-- .... ....|--- .... ....
....|..|--- .... ....|F#6 .... B..3|--- .... ....
....|..|--- .... ....|R-- .... ....|--- .... ....
....|..|C-4 .... ....|C-7 .... ....|A#3 .... ....
....|..|--- .... ....|R-- .... B..5|--- .... ....
....|.F|C-4 I... ....|C-4 KFF. B..3|C-4 K... ....
..27|.A|F-2 9... ....|F-5 P.7. ....|F-2 9CF. ....
....|.5|--- .... ....|--- .... ....|--- .... ....
....|.2|--- .... ....|--- .... B..5|--- .... ....
....|..|--- .... ....|--- .... B..3|--- .... ....
....|..|--- .... ....|--- .... ....|--- .... ....
....|.F|C-4 I... ....|C-4 K.F. ....|C-4 KFF. ....
..25|.A|F#2 9... ....|F#5 6.7. B..5|F#2 9CF. ....
....|..|A-3 R... ....|--- .... B..3|G#3 RFF. ....
....|..|--- .... ....|--- .... ....|--- .... ....
....|..|C-4 S... ....|--- .... B..4|A#3 SF.. ....
....|..|--- .... ....|--- .... ....|--- .... ....
..25|..|F#2 9... 6.60|--- .... B..3|F#2 9C.. 6.60
....|..|--- .... ....|--- .... ....|--- .... ....
..1A|..|C-4 TCF. ....|--- .... ....|C-4 QFF. ....
....|..|--- .... ....|--- .... B..5|--- .... ....
..2C|..|D#2 9FF. 6.60|--- .... B..3|D#2 9C.. 6.60
....|..|--- .... ....|--- .... ....|--- .... ....
....|..|C-4 K... ....|--- .... ....|A#3 KFF. ....
..27|..|F-2 9... ....|--- .... B..5|F-2 9C.. ....
....|..|--- .... ....|--- .... B..3|--- .... ....
....|..|--- ...A ....|--- .... ....|F-2 7F.A 4..1
..27|..|F-2 ...F ....|--- .... ....|F-2 9C.F ....
....|..|--- .... ....|--- .... B..5|--- .... ....
..25|..|F#2 5... ....|--- .... B..3|F#2 .C.. ....
....|..|--- .... ....|--- .... ....|--- .... ....
..4E|..|C-4 SCF. ....|--- .... B..4|A#3 SCF. ....
....|..|--- .... ....|--- .... ....|--- .... ....
..58|..|C-4 KC.. ....|F#5 P... B..3|A#3 KC.. ....
....|..|--- .... ....|--- ...A ....|--- .... ....
....|..|C-4 SF.. ....|F-5 ...F ....|A#3 SF.. ....
....|..|--- .... ....|--- ...A B..5|--- .... ....
....|..|C-4 .... ....|D#5 ...F B..3|A#3 .... ....
....|..|--- .... ....|--- ...A ....|--- .... ....

[Pattern40]
....|.F|D#4 IFFF ....|D#5 UFEF B..3|C#4 KFFF ....
..1D|.A|D#2 9... ....|--- .... B..5|D#2 9CF. ....
....|.5|--- .... ....|--- .... B..3|--- .... ....
....|.2|--- .... 117A|--- .... ....|--- .... ....
..16|..|D#4 ACD. ....|--- .... 11.6|D#4 2FDE ....
....|..|--- .... ....|--- .... ....|--- .... B..5
....|..|A-3 RFF. ....|C#5 .... ....|G#3 R.FF B..3
....|..|--- .... ....|--- .... ....|--- .... ....
....|..|D#4 S... ....|D#5 .... ....|C#4 S... B..4
....|..|--- .... ....|--- .... ....|--- .... ....
....|..|--- .... ....|F#5 .... ....|--- .... B..3
....|..|--- .... ....|--- .... ....|--- .... ....
..16|..|D#4 ACD. ....|D#5 .... ....|D#4 2.DE ....
....|..|--- .... ....|C#5 2... B..5|--- .... ....
....|..|D#4 IFF. ....|D#5 U... B..3|D#4 K.FF ....
..1D|..|D#2 9... 6.20|--- .... ....|D#2 2CF. 6.20
....|..|D#4 I... ....|C#5 .... ....|D#4 KFF. ....
..1D|..|D#2 9CF. ....|--- .... B..5|D#2 9... ....
....|..|--- .... ....|A#4 .... B..3|--- .... ....
....|..|--- .... ....|--- .... ....|--- .... ....
..16|..|D#4 ACD. 6.43|A-4 .... 6.30|D#4 2.DE 6.43
....|..|--- .... ....|--- .... B..5|--- .... ....
....|..|--- .... ....|G#4 .... B..3|--- .... ....
....|..|--- .... ....|--- .... ....|--- .... ....
....|..|D#4 S... ....|F#4 .... B..4|C#4 S.FF ....
....|..|--- .... ....|--- .... ....|--- .... ....
....|..|--- .... ....|--- .... B..3|--- .... ....
....|..|--- .... ....|--- .... ....|--- .... ....
..16|..|D#4 ACF. ....|C#4 .... ....|D#4 2.DE ....
....|..|--- .... ....|--- .... B..5|--- .... ....
....|.F|D#4 IFF. ....|D#4 K.F. B..3|D#4 K..F ....
..21|.A|G#2 9... ....|G#5 P.7. ....|G#2 9CF. ....
....|.5|--- .... ....|--- .... ....|--- .... ....
....|.2|--- .... ....|--- .... B..5|--- .... ....
....|..|--- .... ....|--- .... B..3|--- .... ....
....|..|--- .... ....|--- .... ....|--- .... ....
....|.F|D#4 I... ....|D#4 K.F. ....|D#4 KFF. ....
..1F|.A|A-2 9... ....|A-5 6.7. B..5|A-2 9CF. ....
....|..|--- .... ....|--- .... B..3|--- .... ....
....|..|--- .... ....|--- .... ....|--- .... ....
..23|..|C-1 FCF. ....|G-3 2.F. B..4|G-5 N... ....
....|..|--- .... ....|--- ...A ....|--- .... ....
..25|..|C-1 .C.. B..3|F#3 .F.F ....|C-6 .... ....
..23|..|B-8 GCF. ....|G-3 ..FA ....|--- .... 21.1
..27|..|C-1 FC.. ....|F-3 .F.F ....|--- .... 11.1
..25|..|B-8 GCF. ....|F#3 ..FA B..5|--- .... 11.A
..2C|..|C-1 FC.. ....|D#3 .F.F B..3|D#6 .... 3116
..27|..|B-8 GCF. ....|F-3 ..FA ....|--- .... ....
..27|..|C-1 FC.. ....|F-3 .F.F ....|--- .... ....
..2C|..|B-8 GCF. B..5|D#3 ..FA ....|--- .... ....
..2C|..|C-1 FC.. B..3|D#3 .F.F ....|C-6 .... ....
..27|..|B-8 GCF. ....|F-3 ..FA ....|--- .... ....
..34|..|C-1 FC.. ....|C-3 .F.F ....|A#5 .... ....
..2C|..|B-8 GCF. ....|D#3 ..FA B..5|--- .... ....
..3B|..|C-1 FC.. ....|A#2 .F.F B..3|G-5 .... 6.30
..34|..|B-8 GCF. ....|C-3 ..FA ....|--- .... ....
..34|..|C-1 FC.. B..4|C-3 .F.F ....|F#5 .... ....
..3B|..|B-8 GCF. ....|A#2 ..FA ....|--- .... ....
..3B|..|C-1 FC.. B..3|A#2 .F.F ....|F-5 .... ....
..34|..|B-8 GCF. ....|C-3 ..FA ....|--- .... ....
..46|..|C-1 FC.. ....|G-2 .F.F ....|D#5 .... 6.30
..3B|..|B-8 GCF. B..5|A#2 ..FA ....|--- .... ....
..4A|..|C-1 FC.. ....|F#2 .F.F B..3|C-5 .... ....
..46|..|B-8 GCF. ....|G-2 ..FA ....|--- .... ....

[Pattern41]
....|.F|D#4 IFFF ....|D#4 KFFF B..3|C#4 KFFF ....
..1D|.A|D#1 9C.. ....|D#5 6.7. B..5|D#2 9CF. ....
....|.5|--- .... 11.4|--- .... B..3|--- .... ....
....|.2|--- .... ....|--- .... ....|--- .... ....
..16|..|D#4 ACD. ....|--- .... ....|D#4 2FDE ....
....|..|--- .... ....|--- .... B..5|--- .... ....
....|..|A-3 RFF. ....|--- .... B..3|G#3 R.FF ....
....|..|--- .... ....|A#4 2.E. ....|--- .... ....
....|..|D#4 S... ....|C-5 7... 23.5|C#4 S... B..4
....|..|--- .... ....|--- .... ....|--- .... ....
....|..|--- .... B..3|D#5 U... 3114|--- .... ....
....|..|--- .... ....|--- .... ....|--- .... ....
..16|..|D#4 ACD. ....|--- .... ....|D#4 2.DE ....
....|..|--- .... ....|--- ...A ....|--- .... B..5
....|..|D#4 IFF. ....|F#5 ...F 3114|D#4 K.FF B..3
....|..|D#2 9... 6.20|--- .... ....|D#2 2... 6.20
....|..|D#4 I... ....|--- .... ....|D#4 K... ....
....|..|D#2 7... 4..1|--- ...A ....|D#2 9... B..5
....|..|--- .... ....|D#5 2..F ....|--- .... B..3
....|..|--- .... ....|--- .... ....|--- .... ....
..16|..|D#4 ACD. ....|--- .... 11.C|D#4 2.DE ....
....|..|--- .... ....|--- ...A B..5|--- .... ....
....|..|D#5 VC7. 6.50|F#5 .... B..3|D#4 ..7. 6.50
....|..|--- .... ....|--- .... ....|--- .... ....
....|..|D#4 SFF. ....|--- .... B..4|C#4 SF.F ....
....|..|--- .... ....|--- ...6 ....|--- .... ....
....|..|D#5 VC7. 6.50|D#5 ...A B..3|D#4 2.7E 6.50
....|..|--- .... ....|--- .... ....|--- .... ....
..16|..|D#4 ACF. ....|--- .... 11.C|D#4 ..DF ....
....|..|--- .... ....|--- ...6 B..5|--- .... ....
....|.F|D#4 IFF. ....|D#4 K.FF B..3|D#4 K... ....
..21|.A|G#2 9... ....|G#5 P.7. ....|G#2 9CF. ....
....|.5|--- .... ....|--- .... ....|--- .... ....
....|.2|--- .... ....|--- .... B..5|--- .... ....
....|..|--- .... ....|--- .... B..3|--- .... ....
....|..|--- .... ....|--- .... ....|--- .... ....
....|.F|D#4 I... ....|D#4 K.F. ....|D#4 KFF. ....
..1F|.A|A-2 9... ....|A-5 6.7. B..5|A-2 9CF. ....
....|..|A-3 R... ....|--- .... B..3|G#3 RFF. ....
....|..|--- .... ....|--- .... ....|--- .... ....
....|..|D#4 S... ....|A#5 U.4. B..4|C#4 SF.. ....
....|..|--- .... ....|--- .... ....|--- .... ....
..1F|..|A-2 9... 6.60|--- .... B..3|A-2 9C.. 6.60
....|..|--- .... ....|--- .... ....|--- .... ....
..16|..|D#4 ACF. ....|--- .... 11.6|D#4 2FDE ....
....|..|--- .... ....|--- .... B..5|--- .... ....
..25|..|F#2 9FF. 6.60|A#5 .... B..3|F#2 9C.F 6.60
....|..|--- .... ....|--- .... ....|--- .... ....
....|..|D#4 K... ....|G#5 .... 6.30|C#4 KFF. ....
..21|..|G#2 9... ....|--- .... B..5|G#2 9C.. ....
....|..|--- .... ....|F#5 .... B..3|--- .... ....
....|..|--- ...A ....|--- .... ....|G#2 7F.A 4..1
..21|..|G#2 ...F ....|G#5 .... ....|G#2 9C.F ....
....|..|--- .... ....|--- .... B..5|--- .... ....
..1F|..|A-2 5... ....|A#5 .... B..3|A-2 .C.. ....
....|..|--- .... ....|G-5 2.E. 23.5|--- .... ....
..42|..|D#4 SCF. ....|G#5 U... 31.4|C#4 SCF. B..4
....|..|--- .... ....|--- .... ....|--- .... ....
..4A|..|D#4 KC.. ....|F#5 .... ....|C#4 KC.. B..3
....|..|--- .... ....|--- .... ....|--- .... ....
....|..|D#4 SF.. ....|D#5 .... ....|C#4 SF.. ....
....|..|--- .... ....|--- .... B..5|--- .... ....
....|..|D#4 .... ....|C#5 .... B..3|C#4 .... ....
....|..|--- .... ....|--- .... ....|--- .... ....

